<svg width="176" height="51" viewBox="0 0 176 51" fill="none" xmlns="http://www.w3.org/2000/svg">
<path d="M5.13 20.9402C4.386 20.9402 3.678 20.7302 3.006 20.3102C2.346 19.8782 1.812 19.2302 1.404 18.3662C0.996 17.4902 0.792 16.3982 0.792 15.0902C0.792 14.2742 0.924 13.5182 1.188 12.8222C1.464 12.1142 1.83 11.4962 2.286 10.9682C2.754 10.4282 3.282 10.0142 3.87 9.72617C4.47 9.42617 5.094 9.27617 5.742 9.27617H7.29L8.028 10.5722H7.218C6.666 10.5722 6.12 10.7042 5.58 10.9682C5.052 11.2322 4.572 11.6042 4.14 12.0842C3.72 12.5522 3.384 13.1042 3.132 13.7402C2.88 14.3642 2.754 15.0482 2.754 15.7922C2.754 16.6202 2.844 17.3522 3.024 17.9882C3.204 18.6122 3.51 19.1042 3.942 19.4642C3.894 19.2722 3.87 19.0682 3.87 18.8522C3.87 18.4202 4.02 18.0602 4.32 17.7722C4.62 17.4842 5.004 17.3402 5.472 17.3402C6.036 17.3402 6.456 17.5142 6.732 17.8622C7.02 18.1982 7.164 18.5942 7.164 19.0502C7.164 19.6382 6.984 20.1002 6.624 20.4362C6.264 20.7722 5.766 20.9402 5.13 20.9402ZM13.9344 20.6702C12.2664 20.6702 10.9344 19.9502 9.93839 18.5102C8.95439 17.0702 8.19839 14.9042 7.67039 12.0122L8.64239 11.7602C9.18239 13.9442 9.86639 15.5822 10.6944 16.6742C11.5224 17.7542 12.6144 18.2942 13.9704 18.2942C14.7864 18.2942 15.4284 18.0962 15.8964 17.7002C16.3764 17.2922 16.6164 16.7762 16.6164 16.1522C16.6164 15.9002 16.5804 15.6602 16.5084 15.4322C16.1124 15.8522 15.6804 16.1822 15.2124 16.4222C14.7564 16.6502 14.2884 16.7642 13.8084 16.7642C13.2924 16.7642 12.8064 16.6262 12.3504 16.3502C11.9064 16.0742 11.5464 15.6962 11.2704 15.2162C11.0064 14.7362 10.8744 14.1902 10.8744 13.5782C10.8744 12.9422 11.0424 12.3722 11.3784 11.8682C11.7144 11.3522 12.0864 10.9202 12.4944 10.5722H7.52639L6.77039 9.27617H22.1604L22.8984 10.5722H16.6344C17.4504 11.6882 18.8004 12.1742 20.6844 12.0302L21.8544 13.6322C21.3744 14.2922 21.0024 14.9822 20.7384 15.7022C20.4864 16.4222 20.3604 17.1182 20.3604 17.7902C20.3604 18.3662 20.3964 18.9302 20.4684 19.4822C20.5404 20.0342 20.6904 20.6402 20.9184 21.3002L19.9824 21.6602C19.6464 20.9522 19.3764 20.2262 19.1724 19.4822C18.9804 18.7382 18.8844 17.8982 18.8844 16.9622C18.8844 15.9662 19.0284 15.0122 19.3164 14.1002C18.5604 13.8842 17.8404 13.5302 17.1564 13.0382C16.4844 12.5342 15.9444 11.8322 15.5364 10.9322C14.6964 11.3522 13.9944 11.8202 13.4304 12.3362C12.8664 12.8402 12.5844 13.3262 12.5844 13.7942C12.5844 14.0822 12.6744 14.3042 12.8544 14.4602C13.0464 14.6162 13.2924 14.6942 13.5924 14.6942C13.9644 14.6942 14.3544 14.5442 14.7624 14.2442C15.1704 13.9322 15.6144 13.4882 16.0944 12.9122C16.5384 13.3082 16.9164 13.8242 17.2284 14.4602C17.5524 15.0842 17.7144 15.8042 17.7144 16.6202C17.7144 17.4002 17.5824 18.0962 17.3184 18.7082C17.0544 19.3202 16.6404 19.8002 16.0764 20.1482C15.5244 20.4962 14.8104 20.6702 13.9344 20.6702ZM32.9455 21.1022L31.4695 20.4542V16.0622C31.2655 15.4142 31.0315 14.9642 30.7675 14.7122C30.5035 14.4602 30.2215 14.3342 29.9215 14.3342C29.6215 14.3342 29.3755 14.4722 29.1835 14.7482C28.9915 15.0122 28.9015 15.4262 28.9135 15.9902L28.3555 15.8282C28.1395 15.2522 27.8155 14.8322 27.3835 14.5682C26.9635 14.2922 26.4775 14.1542 25.9255 14.1542C25.3255 14.1542 24.8635 14.3042 24.5395 14.6042C24.2275 14.9042 24.0715 15.3182 24.0715 15.8462C24.0715 16.1582 24.1255 16.4342 24.2335 16.6742C24.3415 16.9022 24.4855 17.0642 24.6655 17.1602C24.6535 17.0762 24.6475 16.9862 24.6475 16.8902C24.6475 16.4462 24.7795 16.0922 25.0435 15.8282C25.3195 15.5642 25.6555 15.4322 26.0515 15.4322C26.5435 15.4322 26.9275 15.5882 27.2035 15.9002C27.4915 16.2002 27.6355 16.5962 27.6355 17.0882C27.6355 17.6282 27.4675 18.0482 27.1315 18.3482C26.8075 18.6482 26.3575 18.7982 25.7815 18.7982C25.1455 18.7982 24.5755 18.6422 24.0715 18.3302C23.5675 18.0182 23.1715 17.5802 22.8835 17.0162C22.6075 16.4522 22.4695 15.7862 22.4695 15.0182C22.4695 13.9742 22.7335 13.1642 23.2615 12.5882C23.8015 12.0122 24.4735 11.7242 25.2775 11.7242C25.9135 11.7242 26.4475 11.8862 26.8795 12.2102C27.3235 12.5222 27.6595 12.9302 27.8875 13.4342C27.9715 12.9182 28.1455 12.5222 28.4095 12.2462C28.6735 11.9582 28.9795 11.8142 29.3275 11.8142C29.8075 11.8142 30.2335 12.0362 30.6055 12.4802C30.9775 12.9122 31.3135 13.5302 31.6135 14.3342C31.5655 14.0222 31.5295 13.7042 31.5055 13.3802C31.4815 13.0562 31.4695 12.7082 31.4695 12.3362V10.5722H22.3975L21.6415 9.27617H34.3675L35.1595 10.5722H33.0895V21.0662L32.9455 21.1022ZM37.4394 21.1022L35.9634 20.4542V12.2822C35.8914 11.8262 35.7594 11.4302 35.5674 11.0942C35.3754 10.7462 35.0994 10.5722 34.7394 10.5722H34.6494L33.8934 9.27617H34.5414C35.2134 9.27617 35.7054 9.67217 36.0174 10.4642C35.9814 9.98417 35.9634 9.62417 35.9634 9.38417V7.69217L36.0894 7.63817L37.5654 8.28617V21.0662L37.4394 21.1022ZM54.9049 21.7682L53.8429 21.1202C53.5309 20.7242 53.1769 20.4482 52.7809 20.2922C52.3969 20.1242 51.9949 20.0402 51.5749 20.0402C51.1069 20.0402 50.6689 20.0702 50.2609 20.1302C49.8649 20.1902 49.4569 20.2562 49.0369 20.3282C48.6169 20.3882 48.1429 20.4182 47.6149 20.4182C46.9669 20.4182 46.3669 20.2982 45.8149 20.0582C45.2629 19.8062 44.8189 19.3982 44.4829 18.8342C44.1469 18.2702 43.9789 17.5022 43.9789 16.5302C43.9789 15.7502 44.0989 14.9522 44.3389 14.1362L45.3109 14.3522C45.2269 14.6282 45.1669 14.8922 45.1309 15.1442C45.1069 15.3842 45.0949 15.6302 45.0949 15.8822C45.0949 16.6502 45.3169 17.2022 45.7609 17.5382C46.2049 17.8622 46.8529 18.0242 47.7049 18.0242C48.3529 18.0242 48.8929 17.9882 49.3249 17.9162C49.7689 17.8322 50.2309 17.7902 50.7109 17.7902C51.3469 17.7902 51.8929 17.9222 52.3489 18.1862C52.8049 18.4382 53.2369 18.9242 53.6449 19.6442C53.5849 19.3202 53.5369 18.9362 53.5009 18.4922C53.4649 18.0362 53.4469 17.6042 53.4469 17.1962V14.5322C53.2429 14.0882 53.0329 13.6802 52.8169 13.3082L48.6769 17.1962L47.0029 15.5582C47.1709 15.4502 47.3509 15.3182 47.5429 15.1622C47.7349 14.9942 47.8969 14.8082 48.0289 14.6042C48.1729 14.4002 48.2449 14.1902 48.2449 13.9742C48.2449 13.6862 48.1669 13.4882 48.0109 13.3802C47.8549 13.2722 47.6869 13.2182 47.5069 13.2182C47.2789 13.2182 47.0689 13.2842 46.8769 13.4162C46.6849 13.5362 46.5169 13.6802 46.3729 13.8482L44.6269 12.1742C45.2509 11.1542 45.9529 10.3802 46.7329 9.85217C47.5249 9.32417 48.3049 9.06017 49.0729 9.06017C49.9969 9.06017 50.8309 9.39017 51.5749 10.0502C52.3189 10.6982 52.9909 11.6522 53.5909 12.9122C53.5429 12.3002 53.5069 11.7362 53.4829 11.2202C53.4589 10.7042 53.4469 10.2422 53.4469 9.83417V7.69217L53.5729 7.63817L54.7969 8.28617L54.9409 9.27617H56.3629L57.1189 10.5722H55.0669V21.7322L54.9049 21.7682ZM49.2349 13.4522C49.2349 13.5722 49.2229 13.6922 49.1989 13.8122L51.4669 11.5622C50.9269 11.0822 50.3809 10.8422 49.8289 10.8422C49.4809 10.8422 49.1629 10.9442 48.8749 11.1482C48.5989 11.3522 48.3409 11.6162 48.1009 11.9402C48.4369 12.0122 48.7069 12.1742 48.9109 12.4262C49.1269 12.6782 49.2349 13.0202 49.2349 13.4522ZM66.9721 21.1022L65.5141 20.4542V13.3982C65.0941 12.5222 64.6681 11.9342 64.2361 11.6342C63.8161 11.3222 63.4441 11.1662 63.1201 11.1662C62.8921 11.1662 62.6881 11.2322 62.5081 11.3642C62.3281 11.4842 62.1661 11.6462 62.0221 11.8502C62.5861 12.1622 63.0421 12.5402 63.3901 12.9842C63.7501 13.4282 63.9301 13.9142 63.9301 14.4422C63.9301 14.9942 63.7801 15.4142 63.4801 15.7022C63.1921 15.9782 62.8141 16.1162 62.3461 16.1162C61.9141 16.1162 61.5301 15.9842 61.1941 15.7202C60.8581 15.4562 60.6241 15.0602 60.4921 14.5322C60.3721 15.0002 60.1381 15.3842 59.7901 15.6842C59.4541 15.9842 59.0401 16.1342 58.5481 16.1342C58.3081 16.1342 58.0621 16.0802 57.8101 15.9722C57.5581 15.8642 57.3481 15.6902 57.1801 15.4502C57.0121 15.2102 56.9281 14.8862 56.9281 14.4782C56.9281 14.1662 57.0001 13.8302 57.1441 13.4702C57.2881 13.1102 57.5341 12.7562 57.8821 12.4082C58.2421 12.0482 58.7461 11.7182 59.3941 11.4182C58.9261 10.8542 58.3441 10.5722 57.6481 10.5722H56.6401L55.8661 9.27617H57.6481C58.2001 9.27617 58.6501 9.40217 58.9981 9.65417C59.3581 9.89417 59.7241 10.2302 60.0961 10.6622C60.4441 10.2062 60.8221 9.83417 61.2301 9.54617C61.6501 9.25817 62.1001 9.11417 62.5801 9.11417C63.1561 9.11417 63.7021 9.36017 64.2181 9.85217C64.7341 10.3442 65.2021 11.0342 65.6221 11.9222C65.5741 11.5502 65.5441 11.1662 65.5321 10.7702C65.5201 10.3622 65.5141 10.0382 65.5141 9.79817V7.69217L65.6401 7.63817L66.8641 8.28617L66.9901 9.27617H68.4121L69.1861 10.5722H67.1161V21.0662L66.9721 21.1022ZM71.4707 21.1022L69.9947 20.4542V12.2822C69.9227 11.8262 69.7907 11.4302 69.5987 11.0942C69.4067 10.7462 69.1307 10.5722 68.7707 10.5722H68.6807L67.9247 9.27617H68.5727C69.2447 9.27617 69.7367 9.67217 70.0487 10.4642C70.0127 9.98417 69.9947 9.62417 69.9947 9.38417V7.69217L70.1207 7.63817L71.3447 8.28617L71.4707 9.27617H72.9107L73.6667 10.5722H71.5967V21.0662L71.4707 21.1022ZM83.2791 21.1022L81.8211 20.4542V16.0982C81.6291 15.6782 81.4551 15.3662 81.2991 15.1622C81.1551 14.9582 80.9811 14.8562 80.7771 14.8562C80.5611 14.8562 80.3571 14.9762 80.1651 15.2162C79.9731 15.4562 79.6911 15.9242 79.3191 16.6202C78.9351 17.3522 78.5571 17.8982 78.1851 18.2582C77.8251 18.6182 77.3811 18.7982 76.8531 18.7982C76.1931 18.7982 75.6111 18.4982 75.1071 17.8982C74.6151 17.2982 74.1711 16.5362 73.7751 15.6122L74.6571 15.1442C74.9451 15.6482 75.1971 15.9842 75.4131 16.1522C75.6411 16.3082 75.8871 16.3862 76.1511 16.3862C76.5231 16.3862 76.8411 16.2062 77.1051 15.8462C77.3811 15.4742 77.6751 14.9642 77.9871 14.3162C77.8071 13.5242 77.4651 12.9842 76.9611 12.6962C76.4691 12.3962 75.9051 12.2462 75.2691 12.2462C75.0651 12.2462 74.8791 12.2582 74.7111 12.2822C74.5431 12.2942 74.3991 12.3122 74.2791 12.3362L72.4071 9.27617H84.7191L85.4931 10.5722H83.4231V21.0662L83.2791 21.1022ZM79.9311 12.3902C80.3271 12.3902 80.6751 12.5522 80.9751 12.8762C81.2751 13.1882 81.5871 13.6982 81.9111 14.4062C81.8871 14.0342 81.8691 13.6622 81.8571 13.2902C81.8451 12.9062 81.8391 12.5342 81.8391 12.1742V10.5722H76.6011C77.1891 10.8122 77.6391 11.1482 77.9511 11.5802C78.2751 12.0002 78.4911 12.5342 78.5991 13.1822C78.8391 12.8582 79.0671 12.6482 79.2831 12.5522C79.5111 12.4442 79.7271 12.3902 79.9311 12.3902ZM90.0152 20.9402C89.2352 20.9402 88.5152 20.7182 87.8552 20.2742C87.1952 19.8182 86.6612 19.1702 86.2532 18.3302C85.8572 17.4782 85.6592 16.4582 85.6592 15.2702C85.6592 14.1782 85.8452 13.2422 86.2172 12.4622C86.5892 11.6702 87.0392 11.0402 87.5672 10.5722H84.9752L84.2372 9.27617H92.1572L92.8952 10.5722H92.0132C91.4972 10.5722 90.9812 10.7042 90.4652 10.9682C89.9492 11.2322 89.4752 11.6042 89.0432 12.0842C88.6112 12.5642 88.2632 13.1282 87.9992 13.7762C87.7472 14.4242 87.6212 15.1322 87.6212 15.9002C87.6212 16.6682 87.7112 17.3642 87.8912 17.9882C88.0712 18.6122 88.3772 19.1042 88.8092 19.4642C88.7612 19.2842 88.7372 19.0802 88.7372 18.8522C88.7372 18.4202 88.8872 18.0602 89.1872 17.7722C89.4872 17.4842 89.8712 17.3402 90.3392 17.3402C90.9032 17.3402 91.3232 17.5142 91.5992 17.8622C91.8872 18.1982 92.0312 18.5942 92.0312 19.0502C92.0312 19.6502 91.8512 20.1182 91.4912 20.4542C91.1432 20.7782 90.6512 20.9402 90.0152 20.9402ZM100.054 20.9042L98.8121 20.1302C98.1641 19.1462 97.3481 18.3842 96.3641 17.8442C95.3921 17.2922 94.2821 16.9442 93.0341 16.8002L92.0441 14.1542C93.0401 13.5182 94.0841 12.9542 95.1761 12.4622C96.2681 11.9582 97.4081 11.5382 98.5961 11.2022V10.5722H91.9541L91.1981 9.27617H105.094L105.832 10.5722H100.216V11.2022C101.152 11.3102 101.956 11.5742 102.628 11.9942C103.3 12.4022 103.816 12.9242 104.176 13.5602C104.548 14.1842 104.734 14.8742 104.734 15.6302C104.734 16.4582 104.548 17.1062 104.176 17.5742C103.816 18.0302 103.318 18.2582 102.682 18.2582C102.154 18.2582 101.752 18.1082 101.476 17.8082C101.212 17.4962 101.08 17.1182 101.08 16.6742C101.08 16.2542 101.212 15.9122 101.476 15.6482C101.74 15.3842 102.082 15.2522 102.502 15.2522C103.126 15.2522 103.54 15.5042 103.744 16.0082C103.756 15.9482 103.762 15.8822 103.762 15.8102C103.762 15.4022 103.612 15.0242 103.312 14.6762C103.012 14.3162 102.598 14.0282 102.07 13.8122C101.554 13.5962 100.948 13.4882 100.252 13.4882H100.216V20.8682L100.054 20.9042ZM94.9241 15.2882C95.5841 15.5162 96.2381 15.8642 96.8861 16.3322C97.5461 16.7882 98.1161 17.4062 98.5961 18.1862V13.5962C97.9961 13.8002 97.3721 14.0522 96.7241 14.3522C96.0881 14.6402 95.4881 14.9522 94.9241 15.2882ZM113.431 20.9042L112.189 20.1302C111.541 19.1462 110.725 18.3842 109.741 17.8442C108.769 17.2922 107.659 16.9442 106.411 16.8002L105.421 14.1542C106.417 13.5182 107.461 12.9542 108.553 12.4622C109.645 11.9582 110.785 11.5382 111.973 11.2022V10.5722H105.331L104.575 9.27617H114.889L115.663 10.5722H113.593V20.8682L113.431 20.9042ZM108.301 15.2882C108.961 15.5162 109.615 15.8642 110.263 16.3322C110.923 16.7882 111.493 17.4062 111.973 18.1862V13.5962C111.373 13.8002 110.749 14.0522 110.101 14.3522C109.465 14.6402 108.865 14.9522 108.301 15.2882ZM109.183 21.0482C108.811 21.0482 108.487 20.9222 108.211 20.6702C107.947 20.4302 107.815 20.1122 107.815 19.7162C107.815 19.3082 107.947 18.9842 108.211 18.7442C108.487 18.4922 108.811 18.3662 109.183 18.3662C109.555 18.3662 109.873 18.4922 110.137 18.7442C110.401 18.9842 110.533 19.3082 110.533 19.7162C110.533 20.1242 110.395 20.4482 110.119 20.6882C109.855 20.9282 109.543 21.0482 109.183 21.0482ZM127.915 20.9042L126.673 20.1302C126.025 19.1462 125.209 18.3842 124.225 17.8442C123.253 17.2922 122.143 16.9442 120.895 16.8002L119.905 14.1542C120.901 13.5182 121.945 12.9542 123.037 12.4622C124.129 11.9582 125.269 11.5382 126.457 11.2022V10.5722H119.815L119.059 9.27617H132.955L133.693 10.5722H128.077V11.2022C129.013 11.3102 129.817 11.5742 130.489 11.9942C131.161 12.4022 131.677 12.9242 132.037 13.5602C132.409 14.1842 132.595 14.8742 132.595 15.6302C132.595 16.4582 132.409 17.1062 132.037 17.5742C131.677 18.0302 131.179 18.2582 130.543 18.2582C130.015 18.2582 129.613 18.1082 129.337 17.8082C129.073 17.4962 128.941 17.1182 128.941 16.6742C128.941 16.2542 129.073 15.9122 129.337 15.6482C129.601 15.3842 129.943 15.2522 130.363 15.2522C130.987 15.2522 131.401 15.5042 131.605 16.0082C131.617 15.9482 131.623 15.8822 131.623 15.8102C131.623 15.4022 131.473 15.0242 131.173 14.6762C130.873 14.3162 130.459 14.0282 129.931 13.8122C129.415 13.5962 128.809 13.4882 128.113 13.4882H128.077V20.8682L127.915 20.9042ZM122.785 15.2882C123.445 15.5162 124.099 15.8642 124.747 16.3322C125.407 16.7882 125.977 17.4062 126.457 18.1862V13.5962C125.857 13.8002 125.233 14.0522 124.585 14.3522C123.949 14.6402 123.349 14.9522 122.785 15.2882ZM135.982 21.1022L134.506 20.4542V12.2822C134.434 11.8262 134.302 11.4302 134.11 11.0942C133.918 10.7462 133.642 10.5722 133.282 10.5722H133.192L132.436 9.27617H133.084C133.756 9.27617 134.248 9.67217 134.56 10.4642C134.524 9.98417 134.506 9.62417 134.506 9.38417V7.69217L134.632 7.63817L135.856 8.28617L135.982 9.27617H137.422L138.178 10.5722H136.108V21.0662L135.982 21.1022ZM146.315 20.9042L145.055 20.1302C144.443 19.2422 143.657 18.5522 142.697 18.0602C141.737 17.5682 140.651 17.2502 139.439 17.1062L138.359 14.6222C138.587 14.4542 138.875 14.2682 139.223 14.0642C139.571 13.8602 139.931 13.6562 140.303 13.4522C140.687 13.2482 141.047 13.0682 141.383 12.9122C140.987 12.6962 140.543 12.5222 140.051 12.3902C139.559 12.2462 139.037 12.1442 138.485 12.0842L136.919 9.27617H147.755L148.529 10.5722H146.459V20.8682L146.315 20.9042ZM143.993 14.1182C143.549 14.3462 143.087 14.5922 142.607 14.8562C142.139 15.1082 141.689 15.3722 141.257 15.6482C141.905 15.8762 142.541 16.1942 143.165 16.6022C143.801 16.9982 144.365 17.5562 144.857 18.2762V10.5722H140.285C141.185 11.0402 141.923 11.5622 142.499 12.1382C143.075 12.7022 143.573 13.3622 143.993 14.1182ZM146.055 7.03417L144.489 5.63017L149.403 2.35417L150.231 2.69617L146.055 7.03417ZM150.818 21.1022L149.342 20.4542V12.2822C149.27 11.8262 149.138 11.4302 148.946 11.0942C148.754 10.7462 148.478 10.5722 148.118 10.5722H148.028L147.272 9.27617H147.92C148.592 9.27617 149.084 9.67217 149.396 10.4642C149.36 9.98417 149.342 9.62417 149.342 9.38417V7.69217L149.468 7.63817L150.692 8.28617L150.818 9.27617H152.258L153.014 10.5722H150.944V21.0662L150.818 21.1022ZM163.059 21.1022L161.583 20.4542V16.0622C161.379 15.4142 161.145 14.9642 160.881 14.7122C160.617 14.4602 160.335 14.3342 160.035 14.3342C159.735 14.3342 159.489 14.4722 159.297 14.7482C159.105 15.0122 159.015 15.4262 159.027 15.9902L158.469 15.8282C158.253 15.2522 157.929 14.8322 157.497 14.5682C157.077 14.2922 156.591 14.1542 156.039 14.1542C155.439 14.1542 154.977 14.3042 154.653 14.6042C154.341 14.9042 154.185 15.3182 154.185 15.8462C154.185 16.1582 154.239 16.4342 154.347 16.6742C154.455 16.9022 154.599 17.0642 154.779 17.1602C154.767 17.0762 154.761 16.9862 154.761 16.8902C154.761 16.4462 154.893 16.0922 155.157 15.8282C155.433 15.5642 155.769 15.4322 156.165 15.4322C156.657 15.4322 157.041 15.5882 157.317 15.9002C157.605 16.2002 157.749 16.5962 157.749 17.0882C157.749 17.6282 157.581 18.0482 157.245 18.3482C156.921 18.6482 156.471 18.7982 155.895 18.7982C155.259 18.7982 154.689 18.6422 154.185 18.3302C153.681 18.0182 153.285 17.5802 152.997 17.0162C152.721 16.4522 152.583 15.7862 152.583 15.0182C152.583 13.9742 152.847 13.1642 153.375 12.5882C153.915 12.0122 154.587 11.7242 155.391 11.7242C156.027 11.7242 156.561 11.8862 156.993 12.2102C157.437 12.5222 157.773 12.9302 158.001 13.4342C158.085 12.9182 158.259 12.5222 158.523 12.2462C158.787 11.9582 159.093 11.8142 159.441 11.8142C159.921 11.8142 160.347 12.0362 160.719 12.4802C161.091 12.9122 161.427 13.5302 161.727 14.3342C161.679 14.0222 161.643 13.7042 161.619 13.3802C161.595 13.0562 161.583 12.7082 161.583 12.3362V10.5722H152.511L151.755 9.27617H164.481L165.273 10.5722H163.203V21.0662L163.059 21.1022ZM173.403 20.9042L172.143 20.1302C171.531 19.2422 170.745 18.5522 169.785 18.0602C168.825 17.5682 167.739 17.2502 166.527 17.1062L165.447 14.6222C165.675 14.4542 165.963 14.2682 166.311 14.0642C166.659 13.8602 167.019 13.6562 167.391 13.4522C167.775 13.2482 168.135 13.0682 168.471 12.9122C168.075 12.6962 167.631 12.5222 167.139 12.3902C166.647 12.2462 166.125 12.1442 165.573 12.0842L164.007 9.27617H174.843L175.617 10.5722H173.547V20.8682L173.403 20.9042ZM171.081 14.1182C170.637 14.3462 170.175 14.5922 169.695 14.8562C169.227 15.1082 168.777 15.3722 168.345 15.6482C168.993 15.8762 169.629 16.1942 170.253 16.6022C170.889 16.9982 171.453 17.5562 171.945 18.2762V10.5722H167.373C168.273 11.0402 169.011 11.5622 169.587 12.1382C170.163 12.7022 170.661 13.3622 171.081 14.1182ZM169.155 21.0482C168.783 21.0482 168.459 20.9222 168.183 20.6702C167.919 20.4302 167.787 20.1122 167.787 19.7162C167.787 19.3082 167.919 18.9842 168.183 18.7442C168.459 18.4922 168.783 18.3662 169.155 18.3662C169.527 18.3662 169.845 18.4922 170.109 18.7442C170.373 18.9842 170.505 19.3082 170.505 19.7162C170.505 20.1242 170.367 20.4482 170.091 20.6882C169.827 20.9282 169.515 21.0482 169.155 21.0482Z" fill="#4F197A"/>
<path d="M4.432 42.6962C3.83467 42.6962 3.27467 42.5042 2.752 42.1202C2.24 41.7255 1.824 41.1495 1.504 40.3922C1.184 39.6348 1.024 38.7175 1.024 37.6402C1.024 37.0002 1.11467 36.3762 1.296 35.7682C1.47733 35.1495 1.744 34.6002 2.096 34.1202C2.45867 33.6295 2.896 33.2402 3.408 32.9522C3.93067 32.6642 4.52267 32.5202 5.184 32.5202H6.144L6.688 33.3522H5.92C5.38667 33.3522 4.88533 33.4802 4.416 33.7362C3.94667 33.9922 3.536 34.3495 3.184 34.8082C2.832 35.2562 2.55467 35.7788 2.352 36.3762C2.14933 36.9628 2.048 37.5922 2.048 38.2642C2.048 39.0002 2.16533 39.6882 2.4 40.3282C2.64533 40.9682 3.056 41.4588 3.632 41.8002C3.52533 41.5975 3.472 41.3682 3.472 41.1122C3.472 40.7922 3.57867 40.5362 3.792 40.3442C4.016 40.1522 4.288 40.0562 4.608 40.0562C5.01333 40.0562 5.32267 40.1842 5.536 40.4402C5.74933 40.6962 5.856 40.9948 5.856 41.3362C5.856 41.7522 5.73333 42.0828 5.488 42.3282C5.24267 42.5735 4.89067 42.6962 4.432 42.6962ZM13.2428 42.6802L12.5548 42.1362C12.5334 41.6135 12.4534 41.0695 12.3148 40.5042C12.1868 39.9388 12.0001 39.4162 11.7548 38.9362C11.5201 38.4455 11.2428 38.0455 10.9227 37.7362C10.6027 37.4162 10.2454 37.2402 9.85075 37.2082C9.91475 37.3788 9.94675 37.5708 9.94675 37.7842C9.94675 38.2002 9.81875 38.5415 9.56275 38.8082C9.31742 39.0642 8.96008 39.1922 8.49075 39.1922C7.92542 39.1922 7.50408 39.0268 7.22675 38.6962C6.96008 38.3655 6.82675 37.9602 6.82675 37.4802C6.82675 36.9468 7.00275 36.5255 7.35475 36.2162C7.71742 35.8962 8.19208 35.7362 8.77875 35.7362C9.42942 35.7362 10.0054 35.8962 10.5068 36.2162C11.0081 36.5362 11.4294 36.9628 11.7708 37.4962C12.1121 38.0188 12.3628 38.5842 12.5228 39.1922C12.5121 38.8935 12.4961 38.5788 12.4748 38.2482C12.4641 37.9068 12.4588 37.5815 12.4588 37.2722V33.3522H6.29875L5.75475 32.5202H14.5228L15.0668 33.3522H13.3228V42.6642L13.2428 42.6802ZM16.7054 42.8722L15.8894 42.4242V34.9202C15.804 34.4828 15.676 34.1148 15.5054 33.8162C15.3347 33.5068 15.0947 33.3522 14.7854 33.3522H14.6734L14.1454 32.5202H14.7534C14.9667 32.5202 15.1854 32.6108 15.4094 32.7922C15.6334 32.9735 15.8147 33.2668 15.9534 33.6722C15.932 33.4375 15.916 33.2242 15.9054 33.0322C15.8947 32.8295 15.8894 32.6802 15.8894 32.5842V31.3202L15.9534 31.3042L16.6894 31.8322L16.7534 32.5202H17.9374L18.4974 33.3522H16.7534V42.8562L16.7054 42.8722ZM25.1993 42.6802L24.4473 42.0882C23.8606 41.1495 23.1726 40.4455 22.3833 39.9762C21.5939 39.5068 20.6126 39.1922 19.4393 39.0322L18.7833 37.2242C19.1886 36.9682 19.6419 36.6908 20.1432 36.3922C20.6446 36.0935 21.1353 35.8268 21.6153 35.5922C21.1779 35.2722 20.7353 35.0268 20.2873 34.8562C19.8499 34.6748 19.3593 34.5468 18.8153 34.4722L17.5672 32.5202H26.4792L27.0233 33.3522H25.2793V42.6642L25.1993 42.6802ZM23.0873 36.4562C22.6819 36.6588 22.2233 36.8935 21.7113 37.1602C21.2099 37.4268 20.7673 37.6882 20.3832 37.9442C20.8633 38.1042 21.3433 38.3015 21.8233 38.5362C22.3139 38.7602 22.7779 39.0588 23.2153 39.4322C23.6633 39.8055 24.0633 40.2908 24.4153 40.8882V33.3522H19.6153C20.4579 33.7148 21.1619 34.1628 21.7273 34.6962C22.2926 35.2188 22.7459 35.8055 23.0873 36.4562ZM21.6313 42.3602C21.3539 42.3602 21.1139 42.2695 20.9113 42.0882C20.7086 41.9068 20.6073 41.6722 20.6073 41.3842C20.6073 41.0855 20.7033 40.8455 20.8953 40.6642C21.0979 40.4828 21.3433 40.3922 21.6313 40.3922C21.9086 40.3922 22.1433 40.4828 22.3353 40.6642C22.5273 40.8455 22.6233 41.0855 22.6233 41.3842C22.6233 41.6828 22.5219 41.9228 22.3193 42.1042C22.1273 42.2748 21.8979 42.3602 21.6313 42.3602ZM28.6585 42.8722L27.8425 42.4242V34.9202C27.7572 34.4828 27.6292 34.1148 27.4585 33.8162C27.2878 33.5068 27.0478 33.3522 26.7385 33.3522H26.6265L26.0985 32.5202H26.7065C26.9198 32.5202 27.1385 32.6108 27.3625 32.7922C27.5865 32.9735 27.7678 33.2668 27.9065 33.6722C27.8852 33.4375 27.8692 33.2242 27.8585 33.0322C27.8478 32.8295 27.8425 32.6802 27.8425 32.5842V31.3202L27.9065 31.3042L28.6425 31.8322L28.7065 32.5202H29.8905L30.4505 33.3522H28.7065V42.8562L28.6585 42.8722ZM38.3684 42.6802L37.6164 42.0882C37.051 41.1282 36.3737 40.3655 35.5844 39.8002C34.8057 39.2242 33.8244 38.8668 32.6404 38.7282L32.0004 37.0322C32.4164 37.0322 32.8324 36.9948 33.2484 36.9202C33.675 36.8455 34.0644 36.7282 34.4164 36.5682C34.7684 36.4082 35.051 36.2002 35.2644 35.9442C35.4777 35.6882 35.5844 35.3842 35.5844 35.0322C35.5844 34.6695 35.5044 34.3602 35.3444 34.1042C34.907 34.6162 34.4217 35.0268 33.8884 35.3362C33.3657 35.6455 32.8217 35.8002 32.2564 35.8002C31.979 35.8002 31.707 35.7468 31.4404 35.6402C31.1844 35.5228 30.971 35.3468 30.8004 35.1122C30.6297 34.8668 30.5444 34.5522 30.5444 34.1682C30.5444 33.7948 30.635 33.5068 30.8164 33.3042C31.0084 33.1015 31.2857 33.0002 31.6484 33.0002C31.9684 33.0002 32.219 33.0908 32.4004 33.2722C32.5817 33.4535 32.6724 33.6828 32.6724 33.9602C32.6724 34.1842 32.6404 34.3602 32.5764 34.4882C32.875 34.4455 33.243 34.2642 33.6804 33.9442C34.1177 33.6135 34.5657 33.1228 35.0244 32.4722C35.2484 32.6748 35.467 32.9148 35.6804 33.1922C35.9044 33.4588 36.0857 33.7628 36.2244 34.1042C36.3737 34.4455 36.4484 34.8348 36.4484 35.2722C36.4484 35.9975 36.2724 36.5735 35.9204 37.0002C35.5684 37.4268 35.0564 37.7415 34.3844 37.9442C35.0457 38.2535 35.643 38.6482 36.1764 39.1282C36.7097 39.5975 37.179 40.1842 37.5844 40.8882V31.3202L37.6484 31.3042L38.3844 31.8322L38.4484 32.5202H39.6324L40.1924 33.3522H38.4484V42.6642L38.3684 42.6802ZM41.8304 42.8722L41.0144 42.4242V34.9202C40.929 34.4828 40.801 34.1148 40.6304 33.8162C40.4597 33.5068 40.2197 33.3522 39.9104 33.3522H39.7984L39.2704 32.5202H39.8784C40.0917 32.5202 40.3104 32.6108 40.5344 32.7922C40.7584 32.9735 40.9397 33.2668 41.0784 33.6722C41.057 33.4375 41.041 33.2242 41.0304 33.0322C41.0197 32.8295 41.0144 32.6802 41.0144 32.5842V31.3202L41.0784 31.3042L41.8144 31.8322L41.8784 32.5202H43.0624L43.6224 33.3522H41.8784V42.8562L41.8304 42.8722ZM51.7003 42.8722L50.8843 42.4242V38.1842C50.6923 37.5442 50.4683 37.0908 50.2123 36.8242C49.9563 36.5575 49.6789 36.4242 49.3803 36.4242C49.1349 36.4242 48.9109 36.5415 48.7083 36.7762C48.5056 37.0002 48.4043 37.3842 48.4043 37.9282L48.0523 37.8002C47.8709 37.3095 47.5989 36.9522 47.2363 36.7282C46.8843 36.4935 46.4843 36.3762 46.0363 36.3762C45.5136 36.3762 45.1083 36.5095 44.8203 36.7762C44.5323 37.0428 44.3883 37.4108 44.3883 37.8802C44.3883 38.2002 44.4523 38.4828 44.5803 38.7282C44.7083 38.9735 44.8736 39.1442 45.0763 39.2402C45.0656 39.1762 45.0603 39.1068 45.0603 39.0322C45.0603 38.6908 45.1669 38.4242 45.3803 38.2322C45.6043 38.0402 45.8709 37.9442 46.1803 37.9442C46.5536 37.9442 46.8523 38.0562 47.0763 38.2802C47.3109 38.5042 47.4283 38.8082 47.4283 39.1922C47.4283 39.5975 47.2949 39.9175 47.0283 40.1522C46.7723 40.3762 46.4203 40.4882 45.9723 40.4882C45.5563 40.4882 45.1563 40.3762 44.7723 40.1522C44.3989 39.9282 44.0896 39.5975 43.8443 39.1602C43.6096 38.7122 43.4923 38.1628 43.4923 37.5122C43.4923 36.7015 43.7109 36.0615 44.1483 35.5922C44.5856 35.1228 45.1136 34.8882 45.7323 34.8882C46.2549 34.8882 46.6816 35.0215 47.0123 35.2882C47.3429 35.5548 47.6096 35.8802 47.8123 36.2642C47.8869 35.8055 48.0363 35.4695 48.2603 35.2562C48.4949 35.0322 48.7723 34.9202 49.0923 34.9202C49.4336 34.9202 49.7696 35.0855 50.1003 35.4162C50.4309 35.7362 50.7136 36.2855 50.9483 37.0642C50.9269 36.7335 50.9109 36.4188 50.9003 36.1202C50.8896 35.8108 50.8843 35.5015 50.8843 35.1922V33.3522H43.2363L42.6922 32.5202H52.9323L53.4923 33.3522H51.7483V42.8562L51.7003 42.8722ZM55.1273 42.8722L54.3113 42.4242V33.3522H53.0953L52.5672 32.5202H54.3113C54.2793 31.5922 54.0339 30.8668 53.5753 30.3442C53.1273 29.8215 52.5352 29.4535 51.7992 29.2402C51.0526 29.0268 50.2206 28.9202 49.3032 28.9202C48.3859 28.9202 47.6499 28.9895 47.0952 29.1282C46.5299 29.2668 46.2472 29.4855 46.2472 29.7842C46.2472 29.9548 46.3272 30.0775 46.4872 30.1522C46.6366 30.2268 46.9406 30.2642 47.3992 30.2642C47.8366 30.2642 48.2259 30.2482 48.5672 30.2162C48.9086 30.1735 49.2712 30.1522 49.6552 30.1522C50.2099 30.1522 50.6899 30.3068 51.0952 30.6162C51.4899 30.9148 51.7086 31.4002 51.7512 32.0722L51.7832 32.5842H50.8872C50.8872 31.9868 50.7966 31.6028 50.6152 31.4322C50.4339 31.2508 50.1726 31.1602 49.8312 31.1602C49.4686 31.1602 49.0899 31.2028 48.6952 31.2882C48.2899 31.3628 47.8526 31.4002 47.3832 31.4002C47.0952 31.4002 46.8072 31.3575 46.5192 31.2722C46.2206 31.1762 45.9752 31.0162 45.7832 30.7922C45.5806 30.5575 45.4792 30.2375 45.4792 29.8322C45.4792 29.2028 45.8152 28.7068 46.4872 28.3442C47.1592 27.9708 48.0819 27.7842 49.2552 27.7842C50.4286 27.7842 51.4579 27.9655 52.3432 28.3282C53.2286 28.6802 53.9219 29.2562 54.4233 30.0562C54.9246 30.8455 55.1753 31.8962 55.1753 33.2082V42.8562L55.1273 42.8722Z" fill="#64A463"/>
</svg>
