<svg width="120" height="120" viewBox="0 0 120 120" fill="none" xmlns="http://www.w3.org/2000/svg">
<circle opacity="0.4" cx="60" cy="60" r="60" fill="#C4C4C4"/>
<mask id="mask0_401_8722" style="mask-type:alpha" maskUnits="userSpaceOnUse" x="0" y="0" width="120" height="120">
<circle cx="60" cy="60" r="60" fill="#EAEAEA"/>
</mask>
<g mask="url(#mask0_401_8722)">
<path d="M98.7226 117.322V118.559C98.7226 119.796 97.7242 120.795 96.487 120.795H22.1254C20.8231 120.795 19.7812 119.753 19.7812 118.45V19.2148C19.7812 17.9559 20.7797 16.9575 22.0169 16.9575H23.4277V111.874C23.4277 114.24 24.9254 116.236 27.009 116.996C27.5951 117.213 28.2028 117.322 28.854 117.322H98.7226V117.322Z" fill="#58DB9F"/>
<path d="M98.7236 34.6467H85.1362C82.8789 34.6467 81.0339 32.8017 81.0339 30.5444V16.957L87.4586 23.3817L98.7236 34.6467Z" fill="#35E298"/>
<path d="M98.7224 34.6467V120.321H28.8755C28.2243 120.321 27.5949 120.213 27.0306 119.996C24.9252 119.236 23.4492 117.239 23.4492 114.873V16.957H81.0762V30.5444C81.0762 32.8017 82.9211 34.6467 85.1784 34.6467H98.7224Z" fill="white"/>
<path d="M102.695 38.4446V120.859C102.695 122.856 101.067 124.483 99.0701 124.483H27.0093V120.794H96.4655C97.7027 120.794 98.7011 119.795 98.7011 118.558V34.6462L87.4362 23.3812H92.7756L100.155 31.7811C101.805 33.626 102.695 35.9919 102.695 38.4446Z" fill="#36BB7E"/>
<path d="M86.5901 45.3896H66.5563C65.623 45.3896 64.8633 44.6299 64.8633 43.6966V43.6532C64.8633 42.7198 65.623 41.9602 66.5563 41.9602H86.5901C87.5234 41.9602 88.2831 42.7198 88.2831 43.6532V43.6966C88.2831 44.6299 87.5234 45.3896 86.5901 45.3896Z" fill="#F9C655"/>
<path d="M85.9392 70.5919H32.2626C31.3293 70.5919 30.5696 69.8322 30.5696 68.8989V68.8555C30.5696 67.9222 31.3293 67.1625 32.2626 67.1625H85.9392C86.8725 67.1625 87.6322 67.9222 87.6322 68.8555V68.8989C87.6322 69.8322 86.8725 70.5919 85.9392 70.5919Z" fill="#35E298"/>
<path d="M77.2572 79.6856H32.2626C31.3293 79.6856 30.5696 78.926 30.5696 77.9927V77.9492C30.5696 77.0159 31.3293 76.2562 32.2626 76.2562H77.2572C78.1905 76.2562 78.9502 77.0159 78.9502 77.9492V77.9927C78.9502 78.926 78.1905 79.6856 77.2572 79.6856Z" fill="#16A564"/>
<path d="M66.4047 88.7794H32.2626C31.3293 88.7794 30.5696 88.0197 30.5696 87.0864V87.043C30.5696 86.1097 31.3293 85.35 32.2626 85.35H66.4047C67.338 85.35 68.0976 86.1097 68.0976 87.043V87.0864C68.0976 88.0197 67.338 88.7794 66.4047 88.7794Z" fill="#35E298"/>
<path d="M78.7765 97.8731H32.2626C31.3293 97.8731 30.5696 97.1135 30.5696 96.1802V96.1367C30.5696 95.2034 31.3293 94.4437 32.2626 94.4437H78.7765C79.7099 94.4437 80.4695 95.2034 80.4695 96.1367V96.1802C80.4695 97.1135 79.7099 97.8731 78.7765 97.8731Z" fill="#16A564"/>
<path d="M53.9673 47.3455C53.9673 50.406 52.4263 53.1191 50.0821 54.747C48.7798 53.423 47 52.6199 45.0465 52.6199C43.0497 52.6199 41.2481 53.4664 39.9241 54.8338C37.4932 53.2059 35.9087 50.4494 35.9087 47.3238C35.9087 42.3317 39.9458 38.2945 44.938 38.2945C49.9302 38.3162 53.9673 42.3534 53.9673 47.3455Z" fill="#FFF1CD"/>
<path d="M82.7483 54.3544H66.5563C65.623 54.3544 64.8633 53.5947 64.8633 52.6614V52.618C64.8633 51.6847 65.623 50.925 66.5563 50.925H82.7483C83.6816 50.925 84.4413 51.6847 84.4413 52.618V52.6614C84.4413 53.5947 83.6816 54.3544 82.7483 54.3544Z" fill="#16A564"/>
<path d="M44.9378 50.8805C46.8918 50.8805 48.4758 49.2966 48.4758 47.3426C48.4758 45.3887 46.8918 43.8047 44.9378 43.8047C42.9839 43.8047 41.3999 45.3887 41.3999 47.3426C41.3999 49.2966 42.9839 50.8805 44.9378 50.8805Z" fill="#16A564"/>
<path d="M51.9043 57.7202C49.9075 59.0659 47.5199 59.8473 44.937 59.8473C42.4409 59.8473 40.0968 59.1093 38.1433 57.8287C38.5123 56.6784 39.12 55.6582 39.9231 54.8334C41.2471 53.466 43.0487 52.6195 45.0455 52.6195C46.999 52.6195 48.7788 53.4226 50.0811 54.7466C50.9059 55.5714 51.5353 56.5699 51.9043 57.7202Z" fill="#2ADA8F"/>
<path d="M57.4393 47.3433C57.4393 51.6626 55.2471 55.4827 51.9045 57.7184C51.5138 56.5897 50.8844 55.5696 50.0813 54.7665C52.4254 53.1386 53.9665 50.4255 53.9665 47.365C53.9665 42.3729 49.9293 38.3357 44.9372 38.3357C39.945 38.3357 35.9079 42.3729 35.9079 47.365C35.9079 50.4906 37.4923 53.2471 39.9233 54.875C39.1202 55.6998 38.5125 56.7199 38.1435 57.8703C34.7141 55.6347 32.4351 51.7712 32.4351 47.3867C32.4351 40.4845 38.035 34.8846 44.9372 34.8846C51.8394 34.8412 57.4393 40.4411 57.4393 47.3433Z" fill="#FFDC85"/>
</g>
</svg>
