<svg width="120" height="120" viewBox="0 0 120 120" fill="none" xmlns="http://www.w3.org/2000/svg">
<circle cx="60" cy="60" r="60" fill="#C4C4C4" fill-opacity="0.4"/>
<mask id="mask0_401_8742" style="mask-type:alpha" maskUnits="userSpaceOnUse" x="0" y="0" width="120" height="120">
<circle cx="60" cy="60" r="60" fill="#EAEAEA"/>
</mask>
<g mask="url(#mask0_401_8742)">
<path d="M90.8058 37.9872V118.531C90.8058 120.063 89.5649 121.304 88.0332 121.304H21.6854C20.1537 121.304 18.9128 120.063 18.9128 118.531V18.4047C18.9128 16.873 20.1537 15.6516 21.6854 15.6516H72.6193V34.4197C72.6193 36.3974 74.2285 38.0066 76.2061 38.0066H90.8058V37.9872Z" fill="white"/>
<path d="M90.8056 34.458V38.0061H76.206C74.2284 38.0061 72.6191 36.3969 72.6191 34.4192V30.8711C72.6191 32.8487 74.2284 34.458 76.206 34.458H90.8056Z" fill="#1DCC81"/>
<path d="M90.8056 34.2841V34.4586H76.206C74.2284 34.4586 72.6191 32.8493 72.6191 30.8717V15.768L86.5401 29.941L90.8056 34.2841Z" fill="#35E298"/>
<path d="M72.6195 15.7671L72.5032 15.6508" stroke="#12102C" stroke-miterlimit="10"/>
<path d="M39.6394 45.2204V48.4777C39.6394 49.7573 38.5924 50.8043 37.3127 50.8043H31.341C30.0614 50.8043 29.0144 49.7573 29.0144 48.4777V45.2204C29.0144 43.9407 30.042 42.8938 31.341 42.8938H37.3127C38.5924 42.8938 39.6394 43.9407 39.6394 45.2204Z" fill="#F9C655"/>
<path d="M39.6389 48.4766V51.191C39.6389 52.4706 38.5919 53.5176 37.3122 53.5176H31.3405C30.0609 53.5176 29.0139 52.4706 29.0139 51.191V48.4766C29.0139 49.7562 30.0415 50.8032 31.3405 50.8032H37.3122C38.5919 50.7838 39.6389 49.7562 39.6389 48.4766Z" fill="#FFDC85"/>
<path d="M80.3161 53.5739H47.3167C46.4055 53.5739 45.6687 52.8371 45.6687 51.9259V51.8871C45.6687 50.9758 46.4055 50.2391 47.3167 50.2391H80.2967C81.208 50.2391 81.9448 50.9758 81.9448 51.8871V51.9259C81.9642 52.8371 81.2274 53.5739 80.3161 53.5739Z" fill="#35E298"/>
<path d="M80.3161 46.2075H47.3167C46.4055 46.2075 45.6687 45.4707 45.6687 44.5595V44.5207C45.6687 43.6094 46.4055 42.8727 47.3167 42.8727H80.2967C81.208 42.8727 81.9448 43.6094 81.9448 44.5207V44.5595C81.9642 45.4707 81.2274 46.2075 80.3161 46.2075Z" fill="#16A564"/>
<path d="M39.6389 68.2337V71.491C39.6389 72.7706 38.5919 73.8176 37.3122 73.8176H31.3405C30.0609 73.8176 29.0139 72.7706 29.0139 71.491V68.2337C29.0139 66.954 30.0415 65.907 31.3405 65.907H37.3122C38.5919 65.907 39.6389 66.954 39.6389 68.2337Z" fill="#F9C655"/>
<path d="M39.6389 71.4734V74.1879C39.6389 75.4675 38.5919 76.5145 37.3122 76.5145H31.3405C30.0609 76.5145 29.0139 75.4675 29.0139 74.1879V71.4734C29.0139 72.7531 30.0415 73.8001 31.3405 73.8001H37.3122C38.5919 73.8001 39.6389 72.7725 39.6389 71.4734Z" fill="#FFDC85"/>
<path d="M80.3161 76.5919H47.3167C46.4055 76.5919 45.6687 75.8551 45.6687 74.9439V74.9051C45.6687 73.9938 46.4055 73.257 47.3167 73.257H80.2967C81.208 73.257 81.9448 73.9938 81.9448 74.9051V74.9439C81.9642 75.8551 81.2274 76.5919 80.3161 76.5919Z" fill="#35E298"/>
<path d="M80.3161 69.2231H47.3167C46.4055 69.2231 45.6687 68.4864 45.6687 67.5751V67.5363C45.6687 66.6251 46.4055 65.8883 47.3167 65.8883H80.2967C81.208 65.8883 81.9448 66.6251 81.9448 67.5363V67.5751C81.9642 68.4864 81.2274 69.2231 80.3161 69.2231Z" fill="#16A564"/>
<path d="M39.6394 91.2485V94.4863C39.6394 95.766 38.5924 96.813 37.3127 96.813H31.341C30.0614 96.813 29.0144 95.766 29.0144 94.4863V91.2291C29.0144 89.9494 30.042 88.9024 31.341 88.9024H37.3127C38.5924 88.9218 39.6394 89.9494 39.6394 91.2485Z" fill="#F9C655"/>
<path d="M39.6389 94.4883V97.2027C39.6389 98.4823 38.5919 99.5293 37.3122 99.5293H31.3405C30.0609 99.5293 29.0139 98.4823 29.0139 97.2027V94.4883C29.0139 95.7679 30.0415 96.8149 31.3405 96.8149H37.3122C38.5919 96.8149 39.6389 95.7679 39.6389 94.4883Z" fill="#FFDC85"/>
<path d="M80.3161 99.6044H47.3167C46.4055 99.6044 45.6687 98.8676 45.6687 97.9563V97.9176C45.6687 97.0063 46.4055 96.2695 47.3167 96.2695H80.2967C81.208 96.2695 81.9448 97.0063 81.9448 97.9176V97.9563C81.9642 98.8676 81.2274 99.6044 80.3161 99.6044Z" fill="#35E298"/>
<path d="M80.3161 92.238H47.3167C46.4055 92.238 45.6687 91.5012 45.6687 90.5899V90.5512C45.6687 89.6399 46.4055 88.9031 47.3167 88.9031H80.2967C81.208 88.9031 81.9448 89.6399 81.9448 90.5512V90.5899C81.9642 91.5012 81.2274 92.238 80.3161 92.238Z" fill="#16A564"/>
<path d="M105.037 70.0572C105.037 75.3309 103.408 80.1975 100.616 84.2303C99.7827 85.4518 98.8132 86.5763 97.7856 87.6233C96.8938 88.5152 95.9243 89.3489 94.9161 90.105C93.6559 91.0357 92.2793 91.85 90.8445 92.548C87.626 94.0797 84.0003 94.9328 80.2002 94.9328C66.473 94.9328 55.344 83.8037 55.344 70.0766C55.344 56.7373 65.8526 45.8603 79.0369 45.2398C66.9578 45.8409 57.3604 55.826 57.3604 68.0408C57.3604 80.6434 67.5782 90.8806 80.2002 90.8806C80.3941 90.8806 80.5686 90.8806 80.7624 90.8806C80.9369 90.8806 81.1114 90.8806 81.2859 90.8612C81.3829 90.8612 81.4604 90.8612 81.5574 90.8418C81.6155 90.8418 81.6737 90.8418 81.7125 90.8418C81.8676 90.8418 82.0033 90.8224 82.1584 90.803C82.2748 90.803 82.3911 90.7836 82.5074 90.7642C82.5268 90.7642 82.5462 90.7642 82.5656 90.7642C82.7595 90.7448 82.934 90.7255 83.1279 90.7061C83.3217 90.6867 83.5156 90.6479 83.6901 90.6285C83.8646 90.6091 84.0197 90.5704 84.1942 90.551C84.4463 90.5122 84.6789 90.454 84.931 90.4152C85.0861 90.3765 85.2412 90.3571 85.3769 90.3183C85.5514 90.2795 85.7453 90.2407 85.9198 90.1826H85.9392C86.1137 90.1438 86.2882 90.0856 86.4627 90.0469H86.4821C86.6372 90.0081 86.7923 89.9499 86.9668 89.9111C87.0056 89.9111 87.025 89.8918 87.0637 89.8918C87.1995 89.853 87.3158 89.8142 87.4515 89.756C87.5097 89.7366 87.5678 89.7173 87.626 89.6979C87.7811 89.6397 87.9362 89.6009 88.0719 89.5428H88.0913C88.2464 89.4846 88.3822 89.4264 88.5373 89.3683C89.0414 89.1744 89.5261 88.9611 90.0108 88.7284C90.1077 88.6897 90.1853 88.6509 90.2822 88.5927C90.3792 88.5346 90.4761 88.4958 90.5925 88.4376C90.6894 88.3794 90.7863 88.3407 90.8639 88.2825H90.8833C90.8833 88.2825 90.8833 88.2825 90.9027 88.2825C91.019 88.2243 91.116 88.1662 91.2323 88.108C91.4262 88.0111 91.6201 87.8947 91.7946 87.7784C91.9497 87.6815 92.1242 87.5845 92.2793 87.4876C92.4344 87.3906 92.5895 87.2937 92.7446 87.1967C92.8028 87.158 92.8609 87.1192 92.9191 87.0804C92.9966 87.0222 93.0742 86.9835 93.1518 86.9253C93.365 86.7702 93.5977 86.6151 93.7916 86.46C93.8885 86.4018 93.9661 86.3243 94.063 86.2467C94.2763 86.0916 94.4896 85.9171 94.6835 85.7426C94.7804 85.665 94.8773 85.5875 94.9743 85.4905C95.0712 85.413 95.1682 85.3354 95.2457 85.2579C95.3427 85.1609 95.4396 85.0834 95.5366 84.9864C95.6141 84.9089 95.7111 84.8313 95.7886 84.7538C95.8662 84.6762 95.9437 84.6181 96.0213 84.5405C96.1376 84.4436 96.2539 84.3272 96.3509 84.2109C96.758 83.8037 97.1652 83.3772 97.5336 82.9312C97.6305 82.8149 97.7469 82.6792 97.8438 82.5629C97.9601 82.4271 98.0765 82.272 98.1928 82.1363C98.4448 81.8261 98.6775 81.4965 98.9102 81.1669C98.9877 81.0506 99.0847 80.9342 99.1622 80.7985C99.2592 80.6434 99.3561 80.4883 99.453 80.3526C99.453 80.3526 99.4724 80.3332 99.4724 80.3138C99.55 80.1781 99.6469 80.0423 99.7245 79.9066C99.7439 79.8678 99.7633 79.8485 99.7827 79.8097C99.8408 79.7127 99.899 79.6158 99.9572 79.5189C99.9959 79.4607 100.035 79.3831 100.073 79.325C100.132 79.2086 100.209 79.1117 100.267 78.9954C100.306 78.9372 100.345 78.8596 100.384 78.8015C100.442 78.7045 100.5 78.5882 100.539 78.4913C100.655 78.278 100.771 78.0453 100.868 77.832C100.907 77.7351 100.965 77.6382 101.004 77.5218C101.024 77.4637 101.043 77.4249 101.062 77.3861C101.14 77.231 101.198 77.0953 101.256 76.9402C101.314 76.7851 101.392 76.63 101.45 76.4748C101.469 76.4361 101.469 76.4167 101.489 76.3779C101.547 76.2228 101.605 76.0677 101.663 75.9126C101.722 75.7381 101.799 75.5636 101.857 75.3891C101.896 75.2534 101.954 75.1176 101.993 74.9819C102.012 74.9044 102.032 74.8268 102.071 74.7686C102.071 74.7686 102.071 74.7687 102.071 74.7493C102.109 74.6135 102.148 74.4584 102.187 74.3227C102.226 74.1482 102.284 73.9931 102.323 73.8186C102.42 73.4696 102.497 73.14 102.575 72.791C102.594 72.7135 102.613 72.6165 102.633 72.539C102.672 72.3838 102.691 72.2287 102.73 72.0736C102.768 71.8991 102.788 71.7246 102.827 71.5308C102.846 71.3563 102.885 71.2011 102.904 71.0267C102.904 70.9879 102.924 70.9297 102.924 70.8909C102.943 70.7358 102.962 70.5613 102.982 70.4062C102.982 70.4062 102.982 70.3868 102.982 70.3674C103.001 70.2317 103.001 70.096 103.021 69.9603C103.021 69.8633 103.04 69.7664 103.04 69.6694C103.04 69.5337 103.059 69.398 103.059 69.2623C103.059 69.2041 103.059 69.146 103.059 69.0878C103.059 68.9521 103.079 68.8163 103.079 68.6612C103.079 68.6419 103.079 68.6225 103.079 68.6031C103.079 68.4286 103.079 68.2347 103.079 68.0408C103.079 67.8469 103.079 67.653 103.079 67.4785C103.079 67.3234 103.079 67.1877 103.059 67.0326C103.059 66.955 103.059 66.8969 103.059 66.8193C103.059 66.6836 103.04 66.5479 103.04 66.4122C103.04 66.3346 103.021 66.2377 103.021 66.1601C103.021 66.0632 103.001 65.9856 103.001 65.8887C103.001 65.8305 102.982 65.7723 102.982 65.6948C102.962 65.5785 102.962 65.4427 102.943 65.3264C102.943 65.2682 102.924 65.1907 102.924 65.1325C102.904 64.9774 102.885 64.8223 102.865 64.6672C102.846 64.4733 102.807 64.2988 102.788 64.1243C102.769 63.9692 102.73 63.7947 102.691 63.6396C102.691 63.6008 102.672 63.5814 102.672 63.5427C102.633 63.3682 102.594 63.213 102.555 63.0385C102.516 62.8641 102.478 62.6896 102.439 62.5344C102.439 62.5151 102.439 62.4957 102.42 62.4763C102.381 62.3212 102.342 62.1661 102.303 61.9916C102.187 61.5844 102.071 61.1772 101.935 60.7701C101.896 60.6731 101.877 60.5762 101.838 60.4986C101.818 60.4405 101.799 60.4017 101.78 60.3435C101.722 60.1884 101.663 60.0527 101.625 59.8976C101.625 59.8782 101.625 59.8782 101.605 59.8588C101.547 59.7037 101.489 59.5486 101.411 59.3935C101.353 59.2578 101.295 59.1027 101.237 58.9669C101.101 58.6567 100.965 58.3659 100.83 58.0557C100.791 57.9587 100.733 57.8618 100.694 57.7842C100.578 57.5516 100.442 57.2995 100.326 57.0669C100.287 56.9893 100.248 56.9118 100.209 56.8342C100.17 56.7566 100.112 56.6791 100.073 56.6015C99.8796 56.2525 99.6663 55.9035 99.4337 55.5739C99.3367 55.4382 99.2592 55.3025 99.1622 55.1668C99.0847 55.0504 98.9877 54.9341 98.9102 54.7984C98.8714 54.7402 98.8326 54.6821 98.7744 54.6239C98.6969 54.527 98.6193 54.43 98.5418 54.3331C98.4255 54.1586 98.2897 54.0035 98.154 53.8484C98.0571 53.732 97.9795 53.6351 97.8826 53.5187C97.6305 53.2279 97.3785 52.9177 97.107 52.6269C97.0101 52.5299 96.9131 52.4136 96.8162 52.3167C96.6805 52.1809 96.5448 52.0452 96.409 51.9095C96.2733 51.7932 96.157 51.6574 96.0213 51.5411C95.8856 51.4248 95.7692 51.2891 95.6335 51.1727C95.5172 51.0758 95.4008 50.9595 95.2845 50.8625C95.2457 50.8237 95.1876 50.785 95.1488 50.7462C95.0518 50.6686 94.9549 50.5717 94.858 50.4941C94.8386 50.4747 94.8192 50.4747 94.7998 50.4553C94.6641 50.3584 94.5477 50.2421 94.412 50.1451C94.412 50.1451 94.412 50.1451 94.3926 50.1257C94.2569 50.0288 94.1212 49.9125 94.0049 49.8155C93.9855 49.8155 93.9855 49.7961 93.9661 49.7961C93.8497 49.6992 93.714 49.6216 93.5977 49.5247C93.2875 49.3114 92.9773 49.0981 92.667 48.8849C92.5313 48.8073 92.415 48.7298 92.2793 48.6328C92.2599 48.6134 92.2211 48.594 92.2017 48.5747C92.066 48.4777 91.9109 48.4002 91.7752 48.3226C91.6201 48.2257 91.4649 48.1481 91.3098 48.0512C91.1741 47.9736 91.019 47.8961 90.8833 47.8185C90.5537 47.644 90.2241 47.4695 89.8751 47.3144C89.7781 47.2562 89.6618 47.2175 89.5649 47.1787C89.4873 47.1399 89.4098 47.1011 89.3128 47.0623C89.1965 47.0042 89.0801 46.9654 88.9638 46.9072C88.925 46.8879 88.8863 46.8685 88.8475 46.8491C88.7312 46.8103 88.6148 46.7521 88.4985 46.7134C88.4015 46.6746 88.324 46.6358 88.2271 46.6164C88.1495 46.5776 88.0526 46.5582 87.975 46.5195C87.8781 46.4807 87.7811 46.4419 87.6842 46.4225C87.6066 46.3837 87.5291 46.3644 87.4321 46.345C87.3158 46.3062 87.2188 46.2674 87.1025 46.248C87.025 46.2286 86.928 46.1899 86.8505 46.1705C86.676 46.1123 86.4821 46.0541 86.3076 46.0154C86.1331 45.9572 85.9586 45.9184 85.7841 45.8796C85.7647 45.8796 85.7647 45.8796 85.7453 45.8603C85.5902 45.8215 85.4157 45.7827 85.2606 45.7439C85.0861 45.7051 84.9116 45.6664 84.7177 45.6276C84.7177 45.6276 84.7177 45.6276 84.6983 45.6276C84.5626 45.6082 84.4269 45.5694 84.3106 45.55C84.2718 45.55 84.2524 45.5306 84.2136 45.5306C84.1361 45.5113 84.0779 45.5113 84.0003 45.4919C83.8646 45.4725 83.7289 45.4531 83.5932 45.4337C83.4187 45.4143 83.2442 45.3755 83.0697 45.3562C83.0309 45.3562 82.9921 45.3562 82.9727 45.3368C82.837 45.3174 82.7207 45.298 82.585 45.298C82.5268 45.298 82.4686 45.2786 82.4105 45.2786C82.0809 45.2398 81.7319 45.2204 81.3829 45.201C84.7565 45.3562 87.975 46.1899 90.8639 47.5665C99.2204 51.5605 105.037 60.1303 105.037 70.0572Z" fill="#16A564"/>
<path d="M103.001 68.0216C103.001 80.6241 92.7833 90.8613 80.1613 90.8613C67.5587 90.8613 57.3215 80.6435 57.3215 68.0216C57.3215 55.8067 66.9189 45.8216 78.998 45.2206C79.1919 45.2012 79.3858 45.2012 79.5796 45.2012C79.7735 45.2012 79.9674 45.2012 80.1613 45.2012C80.3552 45.2012 80.5491 45.2012 80.743 45.2012C80.9368 45.2012 81.1307 45.2206 81.3246 45.2206C93.4037 45.8216 103.001 55.8067 103.001 68.0216Z" fill="#11C25C"/>
<path d="M102.943 92.8004L100.325 95.5342L94.8772 90.086C95.9048 89.3299 96.8548 88.4962 97.7467 87.6043L102.943 92.8004Z" fill="#E2CCE3"/>
<path d="M105.968 89.6605L102.962 92.8014L97.7856 87.6246C98.8326 86.5777 99.7827 85.4531 100.616 84.2316L105.968 89.6605Z" fill="#ECDAEB"/>
<path d="M117.969 101.854C117.95 102.377 117.853 102.92 117.678 103.424C117.582 103.715 117.446 104.006 117.291 104.278C117.136 104.549 116.942 104.82 116.728 105.092L116.67 105.169C116.069 105.887 115.332 106.41 114.518 106.721C113.684 107.05 112.754 107.166 111.862 107.07C110.815 106.934 109.787 106.507 108.934 105.732L100.132 97.8405C99.5501 97.317 99.5113 96.3864 100.054 95.8241L100.326 95.5333L102.943 92.7995L105.948 89.6586L106.045 89.5616C106.588 88.9993 107.499 88.9799 108.042 89.5422L116.379 97.8405C117.485 98.9263 118.027 100.4 117.969 101.854Z" fill="#16A564"/>
<path d="M97.5917 70.0388C97.5917 79.6556 89.7975 87.4498 80.1807 87.4498C70.564 87.4498 62.7698 79.6556 62.7698 70.0388C62.7698 60.6935 70.1181 53.0738 79.3664 52.6473C70.913 53.0738 64.1851 60.0537 64.1851 68.6235C64.1851 77.4647 71.3395 84.6191 80.1807 84.6191C89.0219 84.6191 96.1763 77.4647 96.1763 68.6235C96.1763 60.0537 89.4485 53.0738 80.9951 52.6473C90.224 53.0738 97.5917 60.7129 97.5917 70.0388Z" fill="#F1F0ED"/>
<path d="M96.1572 68.6241C96.1572 77.4653 89.0028 84.6197 80.1616 84.6197C71.3204 84.6197 64.166 77.4653 64.166 68.6241C64.166 60.0544 70.8939 53.0745 79.3473 52.6479C79.483 52.6479 79.6187 52.6285 79.7544 52.6285C79.8902 52.6285 80.0259 52.6285 80.1616 52.6285C80.2973 52.6285 80.433 52.6285 80.5688 52.6285C80.7045 52.6285 80.8402 52.6285 80.9759 52.6479C89.4487 53.0745 96.1572 60.0737 96.1572 68.6241Z" fill="white"/>
<path d="M88.1108 67.8858L79.9675 75.8158C78.9012 76.8627 77.1756 76.8433 76.1286 75.7576L72.3478 71.8217C71.3008 70.7359 71.359 69.0103 72.4448 67.9828C72.5611 68.2542 72.7356 68.5063 72.9489 68.7389L76.7296 72.6748C77.7766 73.7606 79.4828 73.7799 80.5686 72.733L88.673 64.8418C89.1383 65.8306 88.9638 67.0715 88.1108 67.8858Z" fill="#EDB844"/>
<path d="M88.6922 64.8226L80.5684 72.7331C79.502 73.7801 77.7764 73.7607 76.7295 72.675L72.9487 68.7391C72.7354 68.5064 72.5609 68.2544 72.4446 67.9829C72.4834 67.9442 72.5027 67.9248 72.5415 67.886L72.8905 67.5758C73.9181 66.7033 75.4304 66.7033 76.4386 67.6146L78.4938 69.4565L84.3104 63.9501C85.3186 62.9807 86.9085 62.9613 87.9555 63.892L87.9942 63.9307C88.3044 64.1828 88.5371 64.493 88.6922 64.8226Z" fill="#F9C655"/>
</g>
</svg>
