<svg width="36" height="36" viewBox="0 0 36 36" fill="none" xmlns="http://www.w3.org/2000/svg">
<path d="M35.7653 17.8811C35.7647 14.4958 34.7942 11.1816 32.9686 8.33074C31.1431 5.4799 28.5388 3.21185 25.4643 1.79508C22.3898 0.378312 18.9736 -0.127839 15.6204 0.336549C12.2671 0.800937 9.11713 2.21642 6.54333 4.41542C3.96953 6.61441 2.0797 9.50484 1.09758 12.7445C0.115461 15.9842 0.082171 19.4374 1.00165 22.6954C1.92114 25.9534 3.75489 28.8798 6.28582 31.128C8.81674 33.3762 11.9389 34.8521 15.2825 35.3811V23.0021H10.7845V17.8811H15.2825V13.9779C15.2825 9.53889 17.9257 7.08613 21.9743 7.08613C23.3027 7.10469 24.628 7.22039 25.9395 7.4323V11.7916H23.7037C21.5034 11.7916 20.8184 13.1586 20.8184 14.5596V17.8811H25.7313L24.946 23.0021H20.8184V35.3811C24.9856 34.7219 28.7807 32.597 31.5207 29.3889C34.2608 26.1808 35.7659 22.1001 35.7653 17.8811V17.8811Z" fill="#1877F2"/>
<path d="M24.9467 23.0022L25.732 17.8819H20.8191V14.5603C20.8191 13.1579 21.5041 11.7924 23.7044 11.7924H25.9394V7.43236C24.6279 7.22045 23.3027 7.10475 21.9743 7.08618C17.9264 7.08618 15.2832 9.53894 15.2832 13.978V17.8811H10.7852V23.0022H15.2832V35.3811C17.1174 35.6671 18.9849 35.6671 20.8191 35.3811V23.0022H24.9467Z" fill="white"/>
</svg>
