<svg width="91" height="36" viewBox="0 0 91 36" fill="none" xmlns="http://www.w3.org/2000/svg">
<path d="M35.7653 17.8811C35.7647 14.4958 34.7942 11.1816 32.9686 8.33074C31.1431 5.47991 28.5388 3.21185 25.4643 1.79508C22.3898 0.378312 18.9736 -0.127839 15.6204 0.336549C12.2671 0.800937 9.11713 2.21642 6.54333 4.41542C3.96953 6.61441 2.0797 9.50484 1.09758 12.7445C0.115461 15.9842 0.082171 19.4374 1.00165 22.6954C1.92114 25.9534 3.75489 28.8798 6.28582 31.128C8.81674 33.3762 11.9389 34.8521 15.2825 35.3811V23.0021H10.7845V17.8811H15.2825V13.9779C15.2825 9.53889 17.9257 7.08613 21.9743 7.08613C23.3027 7.10469 24.628 7.22039 25.9395 7.4323V11.7916H23.7037C21.5034 11.7916 20.8184 13.1586 20.8184 14.5596V17.8811H25.7313L24.946 23.0021H20.8184V35.3811C24.9856 34.7219 28.7807 32.597 31.5207 29.3889C34.2608 26.1808 35.7659 22.1001 35.7653 17.8811Z" fill="#1877F2"/>
<path d="M24.9467 23.0022L25.732 17.8819H20.8191V14.5603C20.8191 13.1579 21.5041 11.7924 23.7044 11.7924H25.9394V7.43236C24.6279 7.22045 23.3027 7.10475 21.9743 7.08618C17.9264 7.08618 15.2832 9.53894 15.2832 13.978V17.8811H10.7852V23.0022H15.2832V35.3811C17.1174 35.6671 18.9849 35.6671 20.8191 35.3811V23.0022H24.9467Z" fill="white"/>
<path d="M54.749 17.8831C54.749 14.3795 55.788 10.9545 57.7345 8.04132C59.681 5.12814 62.4477 2.85759 65.6847 1.5168C68.9216 0.176011 72.4835 -0.174801 75.9198 0.508728C79.3561 1.19226 82.5126 2.87943 84.9901 5.35688C87.4675 7.83434 89.1547 10.9908 89.8382 14.4271C90.5217 17.8635 90.1709 21.4253 88.8301 24.6623C87.4894 27.8992 85.2188 30.6659 82.3056 32.6124C79.3924 34.559 75.9675 35.5979 72.4638 35.5979C67.7656 35.5979 63.2597 33.7315 59.9376 30.4094C56.6154 27.0872 54.749 22.5814 54.749 17.8831V17.8831Z" fill="#FF0000"/>
<path d="M81.5168 13.5062C81.4128 13.0989 81.2037 12.726 80.9103 12.4249C80.6169 12.1239 80.2495 11.9052 79.8449 11.7908C78.3724 11.3856 72.4638 11.3856 72.4638 11.3856C72.4638 11.3856 66.5551 11.3856 65.0826 11.7908C64.6781 11.9052 64.3107 12.1239 64.0173 12.4249C63.7238 12.726 63.5147 13.0989 63.4108 13.5062C63.1384 15.0478 63.0062 16.6109 63.0159 18.1763C63.0062 19.7417 63.1384 21.3048 63.4108 22.8464C63.5147 23.2537 63.7238 23.6266 64.0173 23.9276C64.3107 24.2287 64.6781 24.4474 65.0826 24.5617C66.5588 24.967 72.4638 24.967 72.4638 24.967C72.4638 24.967 78.3724 24.967 79.8449 24.5617C80.2492 24.4471 80.6163 24.2284 80.9094 23.9273C81.2026 23.6263 81.4115 23.2535 81.5153 22.8464C81.7882 21.3048 81.9209 19.7418 81.9117 18.1763C81.9214 16.6109 81.7892 15.0478 81.5168 13.5062Z" fill="white"/>
<path d="M70.6923 21.4245V15.5195L75.4162 18.472L70.6923 21.4245Z" fill="#FF0000"/>
</svg>
