<svg width="23" height="23" viewBox="0 0 23 23" fill="none" xmlns="http://www.w3.org/2000/svg">
<g clip-path="url(#clip0_401_8805)">
<path d="M21.1608 15.0969C19.7527 15.0969 18.3701 14.8767 17.0598 14.4437C16.4178 14.2247 15.6286 14.4256 15.2367 14.8281L12.6506 16.7803C9.65143 15.1793 7.80401 13.3325 6.22491 10.3559L8.11972 7.83714C8.612 7.34551 8.78857 6.62736 8.57702 5.95353C8.14218 4.63642 7.92128 3.25445 7.92128 1.8457C7.92134 0.828007 7.0934 6.67572e-05 6.07577 6.67572e-05H1.85192C0.834288 6.67572e-05 0.00634766 0.828007 0.00634766 1.84564C0.00634766 13.5104 9.49612 23.0001 21.1608 23.0001C22.1785 23.0001 23.0064 22.1721 23.0064 21.1545V16.9424C23.0063 15.9249 22.1784 15.0969 21.1608 15.0969Z" fill="#19A79E"/>
</g>
<defs>
<clipPath id="clip0_401_8805">
<rect width="23" height="23" fill="white"/>
</clipPath>
</defs>
</svg>
