<svg width="239" height="53" viewBox="0 0 239 53" fill="none" xmlns="http://www.w3.org/2000/svg">
<path d="M66.558 15.1103C66.9597 15.0147 67.897 14.24 69.3699 12.7862C70.5177 13.8 71.2159 14.4408 71.4645 14.7086C72.2106 15.5312 72.5836 16.3537 72.5836 17.1762C72.5836 17.9605 72.3158 18.7066 71.7802 19.4143C71.2446 20.103 70.6037 20.6194 69.8577 20.9638C71.235 21.7289 72.3445 22.6949 73.1861 23.8618V9.94552L74.5921 10.835C74.5347 11.9254 74.6591 12.5375 74.9651 12.6714C75.1182 12.7479 75.8546 12.7862 77.1745 12.7862L79.2117 14.7947H75.166V29.6865C74.5156 29.0362 74.0756 28.4336 73.8461 27.8789C72.5071 24.7417 70.1446 22.9819 66.7588 22.5993L63.7747 18.8978C64.6738 19.1274 65.3242 19.2422 65.7259 19.2422C66.6441 19.2422 67.6101 19.0509 68.6239 18.6683C69.8864 18.1901 70.5177 17.578 70.5177 16.8319C70.5177 16.4493 70.3742 16.0955 70.0873 15.7703C69.9342 15.9424 69.7047 16.1815 69.3986 16.4876C69.0352 16.8128 68.423 17.138 67.5622 17.4632C66.7014 17.7692 66.0224 17.9223 65.525 17.9223C64.8938 17.9223 64.339 17.7214 63.8608 17.3197C63.3826 16.918 63.1435 16.4015 63.1435 15.7703C63.1435 15.2347 63.3061 14.7851 63.6313 14.4217C63.9564 14.0391 64.3868 13.8478 64.9225 13.8478C65.8598 13.8478 66.4049 14.2687 66.558 15.1103ZM79.0203 14.2495C78.8864 12.9679 78.8195 11.5141 78.8195 9.88813L79.9385 10.8063C80.0724 11.7054 80.3211 12.3653 80.6845 12.7862H82.8078L84.8164 14.7947H80.828V30.3178L78.8768 28.1945V17.3197C78.8768 16.6119 78.6377 16.0189 78.1595 15.5407C77.7004 15.0434 77.1074 14.7947 76.3805 14.7947C76.2657 14.7947 76.1414 14.8043 76.0075 14.8234L73.999 12.8435C74.8406 12.7479 75.4528 12.7001 75.8353 12.7001C77.3465 12.7001 78.4082 13.2166 79.0203 14.2495ZM95.4945 14.7947V30.0022L93.5147 27.7067L93.486 20.9925C93.486 20.7438 93.266 20.4569 92.8261 20.1317C92.4052 19.7873 92.0513 19.6152 91.7644 19.6152C91.2479 19.6152 90.5306 20.3134 89.6124 21.7098C89.0194 22.5897 88.6942 23.0679 88.6368 23.1445C88.1395 23.7948 87.7186 24.1487 87.3743 24.2061C87.2404 24.2252 87.0491 24.2348 86.8005 24.2348C86.1501 24.2348 85.7197 24.1392 85.5093 23.9479C85.1076 23.814 84.6485 23.3453 84.132 22.5419C84.0555 22.4271 83.7303 21.8341 83.1564 20.7629L84.6772 19.2996C84.7345 19.8352 84.8876 20.3421 85.1362 20.8203C85.3849 21.2985 85.6145 21.5376 85.8249 21.5376C86.131 21.5376 86.9057 20.6481 88.149 18.8692C88.0534 17.9701 87.8526 17.3101 87.5465 16.8893C87.183 16.3728 86.6092 16.0955 85.8249 16.0572C84.9067 16.0189 84.3424 15.9711 84.132 15.9137C83.6729 15.7607 83.2329 15.3781 82.8121 14.766C82.6017 14.6704 81.8652 14.0104 80.6027 12.7862H97.3883L99.3968 14.7947H95.4945ZM89.4689 17.664C90.2915 17.0902 90.808 16.8032 91.0184 16.8032C91.6879 16.8032 92.52 17.444 93.5147 18.7257V14.7947H88.0917C89.0864 15.6938 89.5455 16.6502 89.4689 17.664ZM114.385 18.6109C114.614 18.6874 114.939 18.9839 115.36 19.5004C116.24 20.5908 116.68 21.6715 116.68 22.7428C116.68 23.8905 116.269 24.8852 115.446 25.7269C114.624 26.5494 113.639 26.9607 112.491 26.9607C109.717 26.9607 107.69 25.0765 106.408 21.3081C106.025 20.2177 105.834 18.1901 105.834 15.2251C106.159 15.3781 106.618 15.6459 107.211 16.0285C107.192 16.3154 107.183 16.5546 107.183 16.7458C107.183 19.9786 108.33 22.2741 110.626 23.6322C111.047 23.8809 111.487 24.0053 111.946 24.0053C112.653 24.0053 113.304 23.8905 113.897 23.6609C114.7 23.3357 115.102 22.8862 115.102 22.3124C115.102 22.1019 115.045 21.9011 114.93 21.7098C114.834 21.5185 114.729 21.4229 114.614 21.4229C114.538 21.4229 114.203 21.5281 113.61 21.7385C112.94 21.9872 112.405 22.1115 112.003 22.1115C110.97 22.1115 110.1 21.6907 109.392 20.849C108.742 20.0647 108.416 19.1561 108.416 18.1231C108.416 17.1284 108.971 16.0189 110.081 14.7947H104.945L102.936 12.7862H122.189L124.169 14.7947H114.557C114.461 14.7947 114.299 14.8903 114.069 15.0816C113.839 15.2538 113.725 15.3686 113.725 15.4259C113.725 15.7894 114.117 16.0859 114.901 16.3154C115.513 16.4876 116.078 16.5737 116.594 16.5737C117.053 16.5737 118.019 16.3346 119.492 15.8563C120.181 16.545 121.003 17.3867 121.96 18.3814C120.295 19.9691 119.463 22.1211 119.463 24.8374C119.463 25.8895 119.865 27.3146 120.668 29.1127C120.382 29.2083 120.219 29.2561 120.181 29.2561C119.645 29.2561 119.109 29.084 118.574 28.7397C118.555 28.6058 118.316 27.6206 117.857 25.7842C117.57 24.5791 117.426 23.5749 117.426 22.7714C117.426 21.5663 117.684 20.256 118.201 18.8405C117.206 18.7831 116.24 18.6205 115.303 18.3527C114.117 18.0084 113.313 17.5684 112.893 17.0328C112.72 16.8032 112.462 16.4685 112.118 16.0285C111.812 16.0476 111.41 16.4589 110.913 17.2623C110.435 18.0466 110.195 18.6492 110.195 19.07C110.195 19.5291 110.454 19.7586 110.97 19.7586C111.257 19.7586 111.821 19.5482 112.663 19.1274C113.505 18.7066 113.973 18.4961 114.069 18.4961C114.184 18.4961 114.289 18.5344 114.385 18.6109ZM135.009 10.3759C133.154 8.99864 131.317 8.31 129.5 8.31C127.683 8.31 126.2 9.20906 125.053 11.0072C124.823 11.3706 124.708 11.6193 124.708 11.7532C124.766 11.9062 124.909 12.2506 125.139 12.7862H127.75L129.758 14.7947H125.741V29.7152L123.704 27.7641L123.733 14.7947H121.782L119.773 12.7862H123.446C122.757 12.1358 122.413 11.5619 122.413 11.0646C122.413 10.529 122.518 10.0794 122.729 9.71597C124.125 7.34399 125.942 6.158 128.18 6.158C131.184 6.158 134.091 7.59266 136.903 10.462L137.534 12.3271L135.009 10.3759ZM134.419 23.7757C134.304 23.9479 134.037 24.187 133.616 24.493C133.099 24.8756 132.506 25.0669 131.837 25.0669C130.746 25.0669 129.914 24.6078 129.34 23.6896C129.34 23.5366 129.302 23.3262 129.226 23.0584C129.168 22.7906 129.14 22.5802 129.14 22.4271C129.14 21.5089 129.474 20.8012 130.144 20.3038C130.718 19.8639 131.454 19.6439 132.353 19.6439C132.678 19.6439 132.927 19.663 133.099 19.7013C132.965 18.7448 132.554 18.0275 131.865 17.5493C131.464 17.2815 130.794 17.0328 129.857 16.8032C129.053 16.6119 128.556 16.392 128.365 16.1433C128.059 15.9137 127.829 15.6651 127.676 15.3973C127.447 15.0147 127.294 14.7756 127.217 14.6799C126.796 14.2591 126.165 13.6278 125.323 12.7862H141.191L143.228 14.7947H139.039V29.9448L137.891 28.6823C137.508 26.9607 136.982 25.8034 136.313 25.2104C135.49 24.4835 134.859 24.0053 134.419 23.7757ZM137.088 14.8521H131.521C133.434 16.3633 134.534 17.6927 134.821 18.8405C135.127 20.0456 135.261 20.9446 135.223 21.5376C135.739 22.0732 136.361 22.7906 137.088 23.6896V14.8521ZM159.619 14.7947V30.2604C159.217 29.7248 158.681 28.8927 158.012 27.7641C157.419 26.3294 156.491 25.1721 155.228 24.2922C153.985 23.3931 152.598 22.8862 151.068 22.7714L148.973 19.816C151.862 17.7501 154.75 16.2389 157.639 15.2825V14.7947H148.543L146.563 12.7862H161.57L163.55 14.7947H159.619ZM157.639 18.1805C156.185 18.7352 154.635 19.5387 152.99 20.5908C154.942 21.5281 156.491 22.7906 157.639 24.3783V18.1805ZM167.978 14.6799C166.39 14.6799 165.596 15.5885 165.596 17.4058C165.596 18.2475 165.759 19.4813 166.084 21.1072C166.409 22.7332 166.572 23.967 166.572 24.8087C166.572 26.5111 165.711 27.8884 163.99 28.9405C163.186 29.457 162.555 29.7152 162.096 29.7152C161.847 29.7152 161.618 29.6196 161.407 29.4283C161.197 29.2561 161.092 29.0457 161.092 28.7971C161.092 28.5292 161.312 28.3284 161.752 28.1945C162.038 28.0988 162.325 28.0032 162.612 27.9076C163.205 27.4676 163.607 27.0563 163.817 26.6737C164.028 26.2912 164.133 25.746 164.133 25.0382C164.133 24.3878 163.951 23.441 163.588 22.1976C163.244 20.9351 163.071 19.9786 163.071 19.3282C163.071 18.4292 163.244 17.6066 163.588 16.8606C163.798 16.4207 164.248 15.732 164.936 14.7947H161.35L159.313 12.7862H168.667L170.79 14.766C170.025 14.7086 169.087 14.6799 167.978 14.6799ZM179.289 14.7947V30.2604C178.888 29.7248 178.352 28.8927 177.682 27.7641C177.089 26.3294 176.162 25.1721 174.899 24.2922C173.656 23.3931 172.269 22.8862 170.739 22.7714L168.644 19.816C171.532 17.7501 174.421 16.2389 177.309 15.2825V14.7947H168.214L166.234 12.7862H181.24L183.22 14.7947H179.289ZM177.309 18.1805C175.856 18.7352 174.306 19.5387 172.661 20.5908C174.612 21.5281 176.162 22.7906 177.309 24.3783V18.1805ZM194.478 14.8234C194.688 15.1868 194.793 15.6459 194.793 16.2007C194.793 17.138 194.564 17.9318 194.105 18.5822C193.588 19.3474 192.852 19.73 191.895 19.73C191.187 19.73 190.441 19.443 189.657 18.8692C188.892 18.2953 188.347 17.6449 188.022 16.918C187.696 17.6832 187.304 18.3527 186.845 18.9265C186.252 19.6152 185.688 19.9595 185.152 19.9595C184.712 19.9595 184.148 19.6917 183.459 19.1561C182.771 18.6205 182.426 18.1231 182.426 17.664C182.426 17.511 182.513 17.2815 182.685 16.9754C182.876 16.6693 183.067 16.4685 183.259 16.3728C183.89 17.0423 184.272 17.3771 184.406 17.3771C184.751 17.3771 185.114 17.0806 185.497 16.4876C185.898 15.8946 186.099 15.3877 186.099 14.9669C186.099 14.8521 186.07 14.7947 186.013 14.7947H180.992L179.012 12.7862H196.314L198.409 14.7947H196.601C195.74 14.7947 195.052 14.8043 194.535 14.8234H194.478ZM192.412 14.7947H189.083C189.16 15.3877 189.428 15.9137 189.887 16.3728C190.346 16.8319 190.853 17.0615 191.407 17.0615C192.479 17.0615 193.014 16.7267 193.014 16.0572C193.014 15.8277 192.966 15.579 192.871 15.3112C192.737 14.9669 192.584 14.7947 192.412 14.7947ZM191.156 27.2476L191.328 27.3624C193.088 28.4719 195.058 30.0883 197.239 32.2116L197.612 34.4783C195.756 32.6228 193.824 31.1595 191.816 30.0883C190.209 29.2083 188.133 28.3858 185.589 27.6206L183.695 23.1732C185.245 24.2635 186.842 24.8087 188.487 24.8087C189.52 24.8087 190.429 24.5696 191.213 24.0913C192.112 23.5557 192.562 22.8384 192.562 21.9393C192.562 21.1742 192.256 20.7916 191.643 20.7916C191.357 20.7916 191.127 20.8394 190.955 20.9351C190.974 21.662 190.649 22.3315 189.979 22.9436C189.291 23.5557 188.592 23.8618 187.885 23.8618C187.349 23.8618 186.88 23.7279 186.479 23.4601C186 23.1158 185.761 22.6662 185.761 22.1115C185.761 21.5376 186.067 20.8681 186.68 20.103C187.005 19.6821 187.636 19.3378 188.573 19.07C189.358 18.8213 190.046 18.697 190.639 18.697C191.902 18.697 192.925 19.0796 193.709 19.8447C194.475 20.5908 194.857 21.595 194.857 22.8575C194.857 24.5409 193.623 26.0042 191.156 27.2476ZM198.529 14.2495C198.395 12.9679 198.328 11.5141 198.328 9.88813L199.447 10.8063C199.581 11.7054 199.83 12.3653 200.193 12.7862H202.317L204.325 14.7947H200.337V30.3178L198.386 28.1945V17.3197C198.386 16.6119 198.147 16.0189 197.668 15.5407C197.209 15.0434 196.616 14.7947 195.889 14.7947C195.775 14.7947 195.65 14.8043 195.516 14.8234L193.508 12.8435C194.35 12.7479 194.962 12.7001 195.344 12.7001C196.855 12.7001 197.917 13.2166 198.529 14.2495ZM214.085 16.8606C213.875 14.9477 213.77 12.7766 213.77 10.3472L215.061 11.2941L215.204 11.5523C215.243 12.1262 215.472 12.5375 215.893 12.7862C216.199 12.767 216.649 12.7575 217.242 12.7575C217.452 12.7575 217.662 12.7766 217.873 12.8149L219.824 14.7947H215.807L215.778 29.6005C215.204 29.1988 214.497 28.5579 213.655 27.678L213.856 20.1604C213.856 19.9117 213.703 19.5195 213.397 18.9839C213.11 18.4483 212.823 18.0466 212.536 17.7788L207.744 22.6567L205.047 21.6524C205.391 21.3272 205.745 20.9925 206.109 20.6481C206.548 20.1699 206.768 19.7682 206.768 19.443C206.768 18.6587 206.548 18.2666 206.109 18.2666C205.936 18.2666 205.63 18.3622 205.19 18.5535C204.77 18.7448 204.435 18.8405 204.186 18.8405C203.861 18.8405 203.555 18.6779 203.268 18.3527C202.981 18.0275 202.837 17.7023 202.837 17.3771C202.837 17.0902 202.933 16.7841 203.124 16.4589C204.502 14.1634 206.376 13.0157 208.748 13.0157C209.915 13.0157 210.986 13.3983 211.962 14.1634C212.861 14.8521 213.569 15.7511 214.085 16.8606ZM206.395 16.4302C206.874 16.5067 207.285 16.7554 207.629 17.1762C207.974 17.578 208.184 18.0179 208.261 18.4961L210.9 15.885C210.422 15.3877 209.839 15.139 209.15 15.139C207.907 15.139 206.988 15.5694 206.395 16.4302ZM222.64 19.7586C223.119 20.2751 223.358 20.9351 223.358 21.7385C223.358 22.3889 223.138 22.8958 222.698 23.2592C222.277 23.6036 221.751 23.7757 221.12 23.7757C219.111 23.7757 218.107 22.7714 218.107 20.7629C218.107 19.73 218.47 18.8883 219.197 18.2379C219.943 17.5684 220.833 17.2336 221.866 17.2336C223.759 17.2336 225.395 18.477 226.772 20.9638V14.7947H217.16L215.151 12.7862H230.761L232.855 14.7947H228.781V30.3465L227.633 28.8544C227.671 28.6631 227.69 28.5006 227.69 28.3667C227.69 26.7407 227.222 24.9808 226.284 23.0871C225.213 20.9446 223.999 19.8352 222.64 19.7586ZM232.547 14.2495C232.413 12.9679 232.346 11.5141 232.346 9.88813L233.465 10.8063C233.599 11.7054 233.847 12.3653 234.211 12.7862H236.334L238.343 14.7947H234.354V30.3178L232.403 28.1945V17.3197C232.403 16.6119 232.164 16.0189 231.686 15.5407C231.227 15.0434 230.634 14.7947 229.907 14.7947C229.792 14.7947 229.668 14.8043 229.534 14.8234L227.525 12.8435C228.367 12.7479 228.979 12.7001 229.362 12.7001C230.873 12.7001 231.934 13.2166 232.547 14.2495Z" fill="#642B8D"/>
<path d="M69.9777 40.7612H68.2822V47.5693L67.5388 46.7868L67.5909 43.2653C67.5996 42.7784 67.4214 42.2828 67.0562 41.7785C66.6736 41.2307 66.2476 40.9568 65.778 40.9568C65.0651 40.9568 64.5694 41.2829 64.2912 41.935C64.4651 41.8567 64.6999 41.8176 64.9955 41.8176C65.3781 41.8176 65.6911 41.9176 65.9345 42.1176C66.178 42.3089 66.2997 42.5958 66.2997 42.9784C66.2997 43.474 65.8954 44.1522 65.0868 45.013L64.3303 44.1652C64.5651 43.9566 64.8259 43.6957 65.1129 43.3827C65.4955 42.9653 65.6867 42.6958 65.6867 42.5741C65.6867 42.3828 65.5694 42.2871 65.3346 42.2871C65.2563 42.2871 65.0477 42.3784 64.7086 42.561C64.3782 42.7436 64.1608 42.8349 64.0564 42.8349C63.8651 42.8349 63.6956 42.7306 63.5478 42.5219C63.4 42.3132 63.3261 42.1089 63.3261 41.9089C63.3261 41.648 63.413 41.3698 63.5869 41.0742C63.9434 40.4829 64.4868 40.1873 65.2172 40.1873C65.7737 40.1873 66.2737 40.3351 66.7171 40.6307C67.1605 40.9177 67.4475 41.2785 67.5779 41.7133L67.8648 42.6523C67.8561 42.5132 67.817 41.8828 67.7474 40.7612C67.704 39.996 67.6822 39.3656 67.6822 38.87L68.0735 39.2482C68.0474 39.3091 68.0344 39.3743 68.0344 39.4439C68.0344 39.7482 68.1126 39.9395 68.2691 40.0177C68.3561 40.0699 68.5648 40.096 68.8952 40.096L69.3256 40.109L69.9777 40.7612ZM75.8644 40.7612H74.1559V47.3737L73.4385 46.6433L73.4516 43.0305C73.4516 42.5436 73.282 42.0871 72.9429 41.6611C72.6038 41.2263 72.1995 41.009 71.73 41.009C71.4083 41.009 71.1257 41.1394 70.8822 41.4002C70.6388 41.6611 70.517 41.948 70.517 42.261C70.517 42.4958 70.5648 42.7262 70.6605 42.9523C70.7735 43.2305 70.93 43.3696 71.13 43.3696C71.1648 43.3696 71.1822 43.361 71.1822 43.3436C71.1822 43.3001 71.1735 43.2349 71.1561 43.1479C71.1387 43.061 71.13 42.9958 71.13 42.9523C71.13 42.6132 71.3344 42.4436 71.743 42.4436C71.9604 42.4436 72.143 42.5262 72.2908 42.6914C72.4473 42.848 72.5256 43.0349 72.5256 43.2523C72.5256 43.5218 72.4038 43.7392 72.1604 43.9044C71.9256 44.0609 71.6691 44.1392 71.3909 44.1392C70.8779 44.1392 70.4518 43.9566 70.1127 43.5914C69.7823 43.2262 69.6171 42.7871 69.6171 42.2741C69.6171 41.6394 69.7997 41.1177 70.1649 40.709C70.5388 40.2916 71.0387 40.083 71.6648 40.083C72.1604 40.083 72.5995 40.3482 72.982 40.8785C73.1212 41.0785 73.3733 41.5524 73.7385 42.3002C73.582 41.3872 73.5037 40.5351 73.5037 39.7439C73.5037 39.483 73.5081 39.183 73.5168 38.8439L73.7515 39.1048C73.8385 39.2004 73.9124 39.3569 73.9733 39.5743C74.0167 39.7395 74.1776 39.9178 74.4558 40.109H75.2123L75.8644 40.7612ZM82.8708 40.7612H81.2274L81.2144 47.3737C81.1013 47.2954 80.8666 47.0694 80.5101 46.6955L80.6014 43.3305C80.6014 43.1827 80.5101 42.961 80.3275 42.6654C80.1536 42.361 79.9971 42.1654 79.858 42.0784L77.6538 44.3087L76.7017 43.9566C76.8408 43.8174 76.9843 43.6783 77.1321 43.5392C77.2973 43.3479 77.3799 43.1697 77.3799 43.0045C77.3799 42.561 77.2364 42.3393 76.9495 42.3393C76.8538 42.3393 76.706 42.3828 76.506 42.4697C76.3148 42.5567 76.1713 42.6001 76.0756 42.6001C75.9626 42.6001 75.8539 42.5393 75.7496 42.4176C75.6452 42.2958 75.5931 42.1784 75.5931 42.0654C75.5931 41.9611 75.6322 41.8437 75.7105 41.7133C76.3104 40.7133 77.1234 40.2134 78.1494 40.2134C78.6537 40.2134 79.1189 40.3829 79.5449 40.722C79.9362 41.0264 80.2449 41.4263 80.4709 41.9219C80.5927 42.1828 80.7231 42.5262 80.8622 42.9523C80.6622 41.7872 80.5622 40.5134 80.5622 39.1309L80.9144 39.3917L80.9535 39.4569C80.9709 39.7439 81.11 39.9612 81.3709 40.109C81.4752 40.1003 81.61 40.096 81.7752 40.096C82.0273 40.096 82.1795 40.1003 82.2317 40.109L82.8708 40.7612ZM79.3102 41.3872C79.058 41.0742 78.732 40.9177 78.332 40.9177C77.6277 40.9177 77.1364 41.1959 76.8582 41.7524H76.9364C77.1712 41.7437 77.3755 41.848 77.5494 42.0654C77.7233 42.2828 77.8103 42.5045 77.8103 42.7306C77.8103 42.8001 77.7973 42.861 77.7712 42.9132L79.3102 41.3872ZM81.2294 47.8954C81.1686 47.8519 81.0295 47.6345 80.8121 47.2433C80.7251 47.052 80.5773 46.7955 80.3686 46.4737C80.0817 46.1607 79.5948 46.0042 78.9079 46.0042C78.7253 46.0042 78.4514 46.0129 78.0862 46.0303C77.7123 46.0477 77.4341 46.0564 77.2515 46.0564C76.6689 46.0564 76.1733 45.8738 75.7647 45.5086C75.3473 45.1434 75.1386 44.6739 75.1386 44.1C75.1386 43.8479 75.1517 43.574 75.1778 43.2784C75.1778 43.2262 75.1865 43.1523 75.2038 43.0566C75.2038 43.0392 75.2082 43.0305 75.2169 43.0305C75.2864 43.1001 75.4082 43.2218 75.5821 43.3957C75.5386 43.4827 75.5169 43.5783 75.5169 43.6827C75.5169 44.1957 75.7994 44.5913 76.3646 44.8695C76.495 44.9304 76.7776 44.9739 77.2124 45C78.1427 45.0521 78.7383 45.1043 78.9992 45.1565C79.6774 45.2956 80.1817 45.5825 80.5121 46.0173C80.8164 46.4172 81.0034 46.7042 81.0729 46.8781C81.1773 47.1215 81.2294 47.4606 81.2294 47.8954ZM90.5675 40.7612H86.5113C86.4418 40.7612 86.3374 40.8133 86.1983 40.9177C86.0679 41.022 86.0027 41.109 86.0027 41.1785C86.0027 41.3698 86.1983 41.535 86.5896 41.6741C86.9113 41.7785 87.1939 41.8306 87.4373 41.8306C87.6547 41.8306 88.0808 41.7263 88.7155 41.5176C88.9937 41.7959 89.3198 42.1306 89.6937 42.5219C88.972 43.2088 88.6112 44.187 88.6112 45.4564C88.6112 45.9521 88.7764 46.5737 89.1068 47.3215C89.0981 47.3215 89.085 47.3259 89.0676 47.3345C88.8503 47.3345 88.6459 47.2737 88.4546 47.152C88.446 47.0911 88.3416 46.6563 88.1416 45.8477C88.0112 45.3173 87.946 44.8739 87.946 44.5174C87.946 43.9435 88.0808 43.3044 88.3503 42.6001C87.933 42.6001 87.4895 42.5393 87.02 42.4176C86.4287 42.2697 86.0418 42.0741 85.8592 41.8306C85.7723 41.7176 85.6462 41.5524 85.481 41.335C85.4723 41.3263 85.4549 41.322 85.4288 41.322C85.2375 41.322 85.0158 41.522 84.7636 41.9219C84.5202 42.3219 84.3985 42.6262 84.3985 42.8349C84.3985 43.1305 84.5593 43.2784 84.881 43.2784C85.0201 43.2784 85.2853 43.1827 85.6766 42.9914C86.0766 42.8001 86.2809 42.7045 86.2896 42.7045C86.3244 42.7045 86.3548 42.7175 86.3809 42.7436H86.407C86.4505 42.7436 86.5722 42.8653 86.7722 43.1088C87.1548 43.587 87.346 44.0522 87.346 44.5043C87.346 44.9913 87.1721 45.413 86.8243 45.7695C86.4765 46.1173 86.0592 46.2912 85.5723 46.2912C84.3724 46.2912 83.4898 45.4651 82.9247 43.8131C82.7595 43.3262 82.6769 42.4871 82.6769 41.2959C82.7725 41.3394 82.8942 41.4089 83.042 41.5046C83.0333 41.5915 83.029 41.6828 83.029 41.7785C83.029 43.3001 83.5724 44.3826 84.6593 45.026C84.868 45.1478 85.0897 45.2086 85.3245 45.2086C85.6636 45.2086 85.9896 45.1434 86.3026 45.013C86.6939 44.8391 86.8896 44.6043 86.8896 44.3087C86.8896 44.1957 86.8548 44.0783 86.7852 43.9566C86.7244 43.8348 86.6418 43.774 86.5374 43.774C86.4852 43.774 86.3157 43.8261 86.0288 43.9305C85.7418 44.0348 85.5158 44.087 85.3505 44.087C84.9245 44.087 84.568 43.9174 84.2811 43.5783C83.9941 43.2392 83.8507 42.848 83.8507 42.4045C83.8507 42.1002 83.9507 41.8002 84.1506 41.5046C84.2289 41.3829 84.4376 41.135 84.7767 40.7612H82.1943L81.5422 40.109H89.9284L90.5675 40.7612ZM93.1734 40.7612H91.5431V47.6084L90.917 46.9302V42.0393C90.917 41.6567 90.7779 41.335 90.4997 41.0742C90.2301 40.8133 89.9041 40.709 89.5215 40.7612L88.8563 40.109C89.0563 40.083 89.2389 40.0699 89.4041 40.0699C89.9693 40.0699 90.3779 40.2308 90.6301 40.5525C90.7779 40.7264 90.9605 41.1394 91.1779 41.7915C90.9866 40.9133 90.8909 39.9612 90.8909 38.9352L91.1518 39.1439C91.204 39.5613 91.3344 39.883 91.5431 40.109H92.5212L93.1734 40.7612ZM100.675 40.7612H92.5101L91.858 40.109H99.9834L100.675 40.7612ZM99.2661 44.0739C99.2661 44.7174 99.0183 45.2565 98.5227 45.6912C98.0358 46.1173 97.4619 46.3303 96.8011 46.3303C96.5489 46.3303 96.275 46.2825 95.9794 46.1868C95.6577 46.0825 95.4099 45.9521 95.236 45.7955C94.323 44.9869 93.5318 43.4349 92.8623 41.1394L93.2405 41.2959C93.7622 42.5567 94.1883 43.4175 94.5187 43.8783C95.1708 44.7913 95.9533 45.2478 96.8663 45.2478C97.2924 45.2478 97.7054 45.0826 98.1053 44.7521C98.5053 44.413 98.7053 44.0348 98.7053 43.6175C98.7053 43.287 98.6053 42.9784 98.4053 42.6914C98.1879 42.3697 97.9184 42.2089 97.5967 42.2089C97.4923 42.2089 97.3489 42.2306 97.1663 42.2741C97.3315 42.4741 97.4141 42.7219 97.4141 43.0175C97.4141 43.6348 97.075 43.9435 96.3968 43.9435C96.049 43.9435 95.7751 43.8218 95.5751 43.5783C95.3838 43.361 95.2882 43.0697 95.2882 42.7045C95.2882 42.3045 95.4447 41.9785 95.7577 41.7263C96.0707 41.4655 96.4272 41.335 96.8272 41.335C97.5402 41.335 98.1314 41.6176 98.6009 42.1828C99.0444 42.7132 99.2661 43.3436 99.2661 44.0739ZM107.761 40.7612H105.583C105.635 40.7612 105.717 40.9394 105.831 41.2959C105.952 41.6437 106.013 41.8698 106.013 41.9741C106.013 42.1915 105.922 42.4132 105.739 42.6393C105.722 42.6567 105.548 42.8393 105.218 43.1871C104.583 43.074 104.278 42.9653 104.305 42.861C104.226 42.8262 104.009 42.661 103.652 42.3654C103.366 42.1219 103.105 41.9915 102.87 41.9741L102.844 42.0263C103 42.1741 103.079 42.3306 103.079 42.4958C103.079 42.6958 103 42.8914 102.844 43.0827C102.687 43.274 102.513 43.3696 102.322 43.3696C102.087 43.3696 101.879 43.287 101.696 43.1218C101.522 42.9566 101.435 42.7567 101.435 42.5219C101.435 42.1654 101.54 41.8828 101.748 41.6741C101.966 41.4655 102.253 41.3611 102.609 41.3611C102.974 41.3611 103.326 41.4698 103.665 41.6872C103.883 41.8263 104.057 41.9437 104.187 42.0393C104.457 42.2393 104.6 42.3784 104.618 42.4567C104.87 42.361 105.039 42.2437 105.126 42.1045C105.222 41.9654 105.27 41.7611 105.27 41.4915C105.27 41.3089 105.218 41.1437 105.113 40.9959C105.009 40.8394 104.87 40.7612 104.696 40.7612H99.9354L99.2571 40.109H107.096L107.761 40.7612ZM105.843 47.9345L105.595 47.7128C105.448 47.3911 105.291 47.1606 105.126 47.0215C104.917 46.8563 104.652 46.7737 104.33 46.7737C104.165 46.7737 103.917 46.8085 103.587 46.8781C103.248 46.9389 102.996 46.9694 102.83 46.9694C102.274 46.9694 101.817 46.7955 101.461 46.4477C101.096 46.0912 100.913 45.6347 100.913 45.0782C100.913 44.5478 101.022 44.1261 101.239 43.8131L101.539 44.0479C101.452 44.3261 101.409 44.5826 101.409 44.8174C101.409 45.2695 101.522 45.5912 101.748 45.7825C101.957 45.939 102.291 46.0173 102.752 46.0173C102.883 46.0173 103.078 46.0086 103.339 45.9912C103.591 45.9651 103.782 45.9521 103.913 45.9521C104.235 45.9521 104.482 45.9955 104.656 46.0825C104.804 46.152 104.987 46.3085 105.204 46.552V43.8131C105.204 43.7261 105.174 43.5914 105.113 43.4088C105.052 43.2175 104.991 43.1305 104.93 43.1479C104.913 43.1218 104.882 43.1088 104.839 43.1088C104.595 43.1088 104.361 43.2305 104.135 43.474C103.9 43.7088 103.765 43.9522 103.73 44.2044C103.852 44.1696 103.952 44.1522 104.03 44.1522C104.178 44.1522 104.304 44.2131 104.408 44.3348C104.504 44.4478 104.552 44.5782 104.552 44.7261C104.552 44.9347 104.465 45.1086 104.291 45.2478C104.109 45.3782 103.909 45.4434 103.691 45.4434C103.396 45.4434 103.169 45.3391 103.013 45.1304C102.848 44.9217 102.765 44.6695 102.765 44.3739C102.765 43.9131 103.013 43.4479 103.509 42.9784C103.648 42.9001 103.848 42.7784 104.109 42.6132C104.265 42.5002 104.491 42.4436 104.787 42.4436C105.265 42.4436 105.578 42.6436 105.726 43.0436C105.804 43.2523 105.843 43.6435 105.843 44.2174V47.9345ZM110.342 40.7612H108.517V47.4519L107.877 46.7998V40.7612H107.056L106.352 40.109H107.956L107.851 39.6134C107.808 39.3874 107.621 39.0613 107.291 38.6352C106.691 37.844 105.682 37.4484 104.265 37.4484C103.943 37.4484 103.6 37.4919 103.234 37.5788C102.721 37.6918 102.465 37.857 102.465 38.0744C102.465 38.2744 102.787 38.3874 103.43 38.4135C104.334 38.457 104.926 38.5222 105.204 38.6092C105.847 38.8005 106.169 39.1961 106.169 39.796C106.169 39.9351 106.152 40.0656 106.117 40.1873H105.426C105.634 40.0221 105.739 39.8699 105.739 39.7308C105.739 39.4439 105.382 39.283 104.669 39.2482L103.6 39.1961C103.243 39.1787 102.917 39.0656 102.621 38.857C102.282 38.6222 102.113 38.3396 102.113 38.0092C102.113 37.6266 102.43 37.3093 103.065 37.0571C103.569 36.8658 104.052 36.7702 104.513 36.7702C104.947 36.7702 105.495 36.8789 106.156 37.0962C106.46 37.1919 106.817 37.4093 107.225 37.7484C107.773 38.2005 108.204 38.9874 108.517 40.109H109.69L110.342 40.7612ZM119.638 40.7612H118.034V47.5041C117.955 47.3911 117.842 47.2259 117.695 47.0085C117.642 46.8781 117.555 46.6911 117.434 46.4477C117.112 45.8651 116.677 45.3912 116.129 45.026C115.59 44.6522 114.995 44.4391 114.343 44.387L113.508 43.2001C114.769 42.3045 116.064 41.6394 117.395 41.2046V40.7612H113.182L112.543 40.109H118.999L119.638 40.7612ZM117.395 45.6782V42.248C116.621 42.5175 115.782 42.9523 114.877 43.5522C115.999 44.0392 116.838 44.7478 117.395 45.6782ZM122.277 40.7612H120.647V47.6084L120.02 46.9302V42.0393C120.02 41.6567 119.881 41.335 119.603 41.0742C119.334 40.8133 119.008 40.709 118.625 40.7612L117.96 40.109C118.16 40.083 118.342 40.0699 118.508 40.0699C119.073 40.0699 119.481 40.2308 119.734 40.5525C119.881 40.7264 120.064 41.1394 120.281 41.7915C120.09 40.9133 119.994 39.9612 119.994 38.9352L120.255 39.1439C120.307 39.5613 120.438 39.883 120.647 40.109H121.625L122.277 40.7612ZM124.979 42.0002C124.979 42.2697 124.883 42.5523 124.692 42.848C124.509 43.1436 124.296 43.3349 124.053 43.4218C123.957 43.4566 123.805 43.474 123.596 43.474C123.187 43.474 122.835 43.3218 122.54 43.0175C122.244 42.7132 122.096 42.3567 122.096 41.948C122.096 41.5828 122.244 41.2437 122.54 40.9307C122.835 40.6177 123.166 40.4612 123.531 40.4612C123.931 40.4612 124.27 40.6177 124.548 40.9307C124.835 41.235 124.979 41.5915 124.979 42.0002ZM126.113 48.1432C125.079 47.1433 123.874 46.1694 122.5 45.2217V43.7479C123.483 44.5304 124.687 45.8086 126.113 47.5824V48.1432ZM124.326 41.6611C124.326 41.3046 124.183 41.1264 123.896 41.1264C123.609 41.1264 123.348 41.2611 123.113 41.5307C122.887 41.7915 122.774 42.0654 122.774 42.3523C122.774 42.6741 122.9 42.8349 123.153 42.8349C123.309 42.8349 123.518 42.7523 123.779 42.5871C124.048 42.4132 124.213 42.2523 124.274 42.1045C124.309 42.0263 124.326 41.8785 124.326 41.6611ZM132.892 40.7612H131.275V47.4519L130.597 46.8129V43.2001C130.597 42.9914 130.51 42.8001 130.336 42.6262C130.162 42.4523 129.971 42.3654 129.762 42.3654C129.414 42.3654 129.241 42.5654 129.241 42.9653C129.241 43.0088 129.262 43.1566 129.306 43.4088L129.032 43.5131V43.487C129.032 43.4436 128.988 43.3479 128.901 43.2001C128.719 42.9045 128.545 42.6958 128.38 42.5741C128.18 42.4262 127.923 42.3523 127.61 42.3523C127.297 42.3523 127.019 42.4654 126.776 42.6914C126.541 42.9088 126.423 43.174 126.423 43.487C126.423 44.0087 126.71 44.3174 127.284 44.413C127.154 44.2478 127.089 44.0783 127.089 43.9044C127.089 43.6957 127.158 43.5262 127.297 43.3957C127.445 43.2653 127.623 43.2001 127.832 43.2001C128.075 43.2001 128.271 43.3175 128.419 43.5522C128.575 43.7783 128.654 44.0218 128.654 44.2826C128.654 44.5087 128.536 44.6956 128.302 44.8434C128.102 44.9739 127.884 45.0391 127.649 45.0391C127.084 45.0391 126.636 44.8739 126.306 44.5435C125.976 44.2044 125.81 43.7522 125.81 43.1871C125.81 42.7262 125.936 42.3219 126.189 41.9741C126.467 41.5828 126.828 41.3872 127.271 41.3872C127.793 41.3872 128.258 41.6567 128.667 42.1958C128.667 42.0567 128.758 41.8959 128.941 41.7133C129.123 41.522 129.284 41.4263 129.423 41.4263C129.971 41.4263 130.371 41.8046 130.623 42.561V40.7612H125.563L124.884 40.096H132.214L132.892 40.7612ZM135.561 40.7612H133.931V47.6084L133.305 46.9302V42.0393C133.305 41.6567 133.166 41.335 132.888 41.0742C132.618 40.8133 132.292 40.709 131.909 40.7612L131.244 40.109C131.444 40.083 131.627 40.0699 131.792 40.0699C132.357 40.0699 132.766 40.2308 133.018 40.5525C133.166 40.7264 133.348 41.1394 133.566 41.7915C133.374 40.9133 133.279 39.9612 133.279 38.9352L133.54 39.1439C133.592 39.5613 133.722 39.883 133.931 40.109H134.909L135.561 40.7612ZM139.424 40.7481C139.111 40.7568 138.759 40.8394 138.367 40.9959C136.907 41.5698 136.176 42.8045 136.176 44.7C136.176 45.6129 136.528 46.2694 137.233 46.6694C137.293 46.7042 137.385 46.7216 137.507 46.7216C137.628 46.7216 137.68 46.7042 137.663 46.6694C137.585 46.6607 137.498 46.5694 137.402 46.3955C137.315 46.2129 137.272 46.0738 137.272 45.9781C137.272 45.7868 137.354 45.6173 137.52 45.4695C137.693 45.3217 137.876 45.2478 138.067 45.2478C138.224 45.2478 138.346 45.2956 138.433 45.3912C138.711 45.5303 138.85 45.7695 138.85 46.1086C138.85 46.4129 138.733 46.6694 138.498 46.8781C138.272 47.078 138.002 47.178 137.689 47.178C136.994 47.178 136.437 46.8129 136.02 46.0825C135.672 45.4651 135.498 44.7782 135.498 44.0218C135.498 42.8827 135.937 41.7959 136.815 40.7612H134.846L134.194 40.109H138.785L139.424 40.7481ZM145.448 40.7612H140.153V43.5131C140.284 43.4436 140.475 43.2914 140.727 43.0566C141.066 42.7436 141.257 42.5697 141.301 42.5349C141.762 42.1611 142.353 41.835 143.075 41.5568L144.209 42.4045C143.627 43.5349 143.335 44.5609 143.335 45.4825C143.335 45.5521 143.34 45.6564 143.349 45.7955C143.366 45.926 143.375 46.026 143.375 46.0955C143.375 46.2259 143.44 46.6824 143.57 47.465L143.127 47.2433C142.875 46.0868 142.749 45.1956 142.749 44.5696C142.749 43.9783 142.814 43.4088 142.944 42.861C142.362 43.0697 141.836 43.4001 141.366 43.8522C140.897 44.3044 140.549 44.8174 140.323 45.3912L139.449 44.4913V40.7612H138.784L138.118 40.109H144.783L145.448 40.7612ZM152.075 40.7612H150.588V47.4389L149.91 46.7737L149.962 42.7045C149.962 42.461 149.814 42.1437 149.518 41.7524C149.223 41.3611 148.957 41.1655 148.723 41.1655C148.584 41.1655 148.44 41.2133 148.292 41.3089C148.118 41.422 148.031 41.5437 148.031 41.6741C148.353 41.9089 148.566 42.0871 148.671 42.2089C148.897 42.4436 149.01 42.6871 149.01 42.9392C149.01 43.5131 148.731 43.8 148.175 43.8C147.792 43.8 147.466 43.574 147.197 43.1218C147.11 43.3218 146.966 43.5001 146.766 43.6566C146.566 43.8131 146.362 43.8913 146.153 43.8913C145.919 43.8913 145.727 43.7957 145.579 43.6044C145.432 43.4131 145.358 43.1914 145.358 42.9392C145.358 42.6958 145.488 42.4089 145.749 42.0784C146.019 41.748 146.262 41.5698 146.479 41.5437C146.323 41.1437 146.092 40.9003 145.788 40.8133C145.658 40.7786 145.306 40.7655 144.732 40.7742L144.08 40.1221H145.423C145.762 40.1221 146.075 40.2438 146.362 40.4873C146.649 40.722 146.827 41.0046 146.897 41.335C147.158 40.7351 147.592 40.3438 148.201 40.1612C148.34 40.1177 148.436 40.096 148.488 40.096C148.697 40.096 149.027 40.4134 149.479 41.0481C149.897 41.622 150.14 42.035 150.21 42.2871C150.07 40.8785 149.988 39.7656 149.962 38.9483C150.144 39.1048 150.279 39.2352 150.366 39.3395C150.401 39.4874 150.436 39.6308 150.47 39.7699C150.531 39.9873 150.662 40.1003 150.862 40.109C150.862 40.109 151.049 40.109 151.422 40.109L152.075 40.7612ZM162.287 40.7612H160.696V47.4519L160.057 46.7085L160.044 43.7088C160.044 43.5522 159.931 43.387 159.705 43.2131C159.488 43.0392 159.296 42.9523 159.131 42.9523C158.853 42.9523 158.492 43.287 158.049 43.9566C157.588 44.6522 157.275 45.013 157.109 45.0391C157.057 45.0478 156.979 45.0521 156.875 45.0521C156.57 45.0521 156.397 45.013 156.353 44.9347C156.162 44.9087 155.836 44.4739 155.375 43.6305L155.805 43.2131C155.823 43.361 155.897 43.5435 156.027 43.7609C156.157 43.9783 156.292 44.087 156.431 44.087C156.57 44.087 156.796 43.887 157.109 43.487C157.283 43.2523 157.453 43.0175 157.618 42.7827C157.54 41.8524 157.144 41.3698 156.431 41.335C156.266 41.335 156.023 41.3133 155.701 41.2698C155.518 41.2176 155.336 41.0524 155.153 40.7742C155.084 40.7655 154.827 40.5438 154.384 40.109H161.635L162.287 40.7612ZM160.057 43.0697V40.7612H157.109C157.675 41.222 157.957 41.6611 157.957 42.0784C157.957 42.1915 157.944 42.3089 157.918 42.4306C157.996 42.4132 158.14 42.3263 158.349 42.1697C158.557 42.0132 158.705 41.935 158.792 41.935C158.992 41.935 159.231 42.0828 159.509 42.3784C159.579 42.4567 159.761 42.6871 160.057 43.0697ZM167.854 40.7612H166.328V47.3737C166.206 47.3041 166.05 47.0998 165.858 46.7607C165.736 46.5259 165.615 46.2912 165.493 46.0564C165.223 45.5695 164.824 45.1695 164.293 44.8565C163.771 44.5348 163.224 44.3565 162.65 44.3217L161.802 43.161C163.106 42.2393 164.397 41.5828 165.676 41.1916V40.7612H161.685L161.019 40.109H167.189L167.854 40.7612ZM164.463 46.1738C164.463 46.3477 164.402 46.5042 164.28 46.6433C164.167 46.7737 164.024 46.8389 163.85 46.8389C163.667 46.8389 163.502 46.7694 163.354 46.6303C163.215 46.4824 163.145 46.3172 163.145 46.1346C163.145 45.9607 163.206 45.8129 163.328 45.6912C163.45 45.5608 163.598 45.4956 163.771 45.4956C163.954 45.4956 164.115 45.5651 164.254 45.7042C164.393 45.8347 164.463 45.9912 164.463 46.1738ZM165.676 45.7695V42.1567C164.815 42.4436 163.971 42.8871 163.145 43.487C164.337 43.9826 165.18 44.7435 165.676 45.7695ZM175.166 40.7612H171.684V41.2568C171.719 41.2394 171.762 41.2307 171.815 41.2307C172.423 41.2307 172.967 41.5176 173.445 42.0915C173.897 42.6393 174.123 43.2218 174.123 43.8392C174.123 44.1696 174.032 44.4565 173.849 44.7C173.649 44.9695 173.388 45.1043 173.067 45.1043C172.849 45.1043 172.654 45.026 172.48 44.8695C172.306 44.713 172.219 44.5261 172.219 44.3087C172.219 44.0652 172.341 43.8435 172.584 43.6435C172.723 43.6001 172.849 43.5783 172.962 43.5783C173.154 43.5783 173.375 43.6914 173.627 43.9174C173.636 43.8827 173.64 43.8435 173.64 43.8C173.64 43.3566 173.454 42.9697 173.08 42.6393C172.706 42.3002 172.297 42.1306 171.854 42.1306C171.793 42.1306 171.732 42.135 171.671 42.1437V47.3476L171.436 47.1128L171.241 46.539C171.154 46.2868 170.962 45.9868 170.667 45.639C170.006 44.8652 169.254 44.4304 168.41 44.3348L167.511 43.2262C168.623 42.3045 169.806 41.6524 171.058 41.2698V40.7612H167.067L166.402 40.109H174.527L175.166 40.7612ZM171.032 45.5738V42.1567C170.536 42.348 169.802 42.7827 168.828 43.4609C169.767 43.8609 170.502 44.5652 171.032 45.5738ZM177.733 40.7612H176.102V47.6084L175.476 46.9302V42.0393C175.476 41.6567 175.337 41.335 175.059 41.0742C174.789 40.8133 174.463 40.709 174.081 40.7612L173.416 40.109C173.616 40.083 173.798 40.0699 173.963 40.0699C174.529 40.0699 174.937 40.2308 175.189 40.5525C175.337 40.7264 175.52 41.1394 175.737 41.7915C175.546 40.9133 175.45 39.9612 175.45 38.9352L175.711 39.1439C175.763 39.5613 175.894 39.883 176.102 40.109H177.081L177.733 40.7612ZM183.291 40.7612H181.765V47.3737C181.643 47.3041 181.486 47.0998 181.295 46.7607C181.173 46.5259 181.052 46.2912 180.93 46.0564C180.66 45.5695 180.26 45.1695 179.73 44.8565C179.208 44.5348 178.661 44.3565 178.087 44.3217L177.239 43.161C178.543 42.2393 179.834 41.5828 181.113 41.1916V40.7612H177.122L176.456 40.109H182.625L183.291 40.7612ZM179.9 46.1738C179.9 46.3477 179.839 46.5042 179.717 46.6433C179.604 46.7737 179.461 46.8389 179.287 46.8389C179.104 46.8389 178.939 46.7694 178.791 46.6303C178.652 46.4824 178.582 46.3172 178.582 46.1346C178.582 45.9607 178.643 45.8129 178.765 45.6912C178.887 45.5608 179.034 45.4956 179.208 45.4956C179.391 45.4956 179.552 45.5651 179.691 45.7042C179.83 45.8347 179.9 45.9912 179.9 46.1738ZM181.113 45.7695V42.1567C180.252 42.4436 179.408 42.8871 178.582 43.487C179.774 43.9826 180.617 44.7435 181.113 45.7695Z" fill="#333634"/>
<path d="M52.9803 25.618C34.6258 24.4275 13.9298 35.1029 4.22672 40.8572C3.59175 39.8651 3.01631 38.8333 2.52024 37.7816C1.70669 36.0553 1.07173 34.2298 0.655029 32.3249C4.52436 30.4993 8.27463 28.9913 11.8662 27.7611C12.263 27.6222 12.6599 27.4833 13.0766 27.3642C15.2394 26.6499 17.3428 26.0546 19.3866 25.5387C19.6643 25.4593 19.962 25.3998 20.2398 25.3204C34.8837 21.7289 46.4123 22.6218 52.8811 23.7528C52.9207 24.0901 52.9406 24.4275 52.9604 24.7846C52.9604 25.0624 52.9803 25.3402 52.9803 25.618Z" fill="#51B848"/>
<path opacity="0.4" d="M52.861 23.7517C46.3923 22.6207 34.8636 21.7278 20.2197 25.3193C19.9419 25.3788 19.6641 25.4582 19.3665 25.5376C17.3227 26.0535 15.2194 26.6686 13.0565 27.3631C12.6597 27.502 12.2628 27.6211 11.8461 27.76C8.23473 28.9902 4.5043 30.4983 0.634967 32.3238C0.21827 30.4387 0 28.4941 0 26.49C0 11.8659 11.8659 0 26.5099 0C40.2013 0 51.4918 10.4174 52.861 23.7517Z" fill="#BBE6FB"/>
<path d="M53.0002 26.3315V26.5101C53.0002 27.0061 52.9803 27.4824 52.9605 27.9784C46.0156 30.2405 32.5622 36.3719 19.8033 52.1667C17.1047 51.4524 14.5649 50.3412 12.2829 48.8728C9.04859 46.8092 6.31029 44.0907 4.22681 40.8762C13.9299 35.1218 34.6258 24.4464 52.9804 25.637C53.0002 25.8553 53.0002 26.0934 53.0002 26.3315Z" fill="#0FA945"/>
<path d="M52.9604 27.9584C52.2064 41.9079 40.6381 52.9999 26.5101 52.9999C24.1885 52.9999 21.9462 52.7023 19.8032 52.1467C32.5621 36.3519 46.0155 30.2205 52.9604 27.9584Z" fill="#069146"/>
<path d="M13.0761 21.7865V27.3425C12.6793 27.4814 12.2824 27.6004 11.8657 27.7393V21.7667C12.0642 21.8262 12.2626 21.846 12.461 21.846C12.6793 21.8659 12.8777 21.846 13.0761 21.7865Z" fill="#88593B"/>
<path d="M16.2508 16.0916C16.2508 18.9688 14.8618 21.3697 13.0561 21.8063C12.8577 21.8658 12.6593 21.8856 12.4609 21.8856C12.2624 21.8856 12.064 21.8658 11.8656 21.8063C10.0599 21.3697 8.6709 18.9688 8.6709 16.0916C8.6709 12.8969 10.3774 10.2975 12.4609 10.2975C14.5443 10.2975 16.2508 12.8969 16.2508 16.0916Z" fill="#14B24B"/>
<path d="M20.2194 21.5093V25.3191C19.9417 25.3786 19.6639 25.458 19.3662 25.5373V21.5291C19.5051 21.5688 19.644 21.5886 19.7829 21.5886C19.9416 21.5688 20.0805 21.549 20.2194 21.5093Z" fill="#88593B"/>
<path d="M22.4619 17.4815C22.4619 19.5055 21.4896 21.1921 20.2197 21.5096C20.0808 21.5493 19.9419 21.5691 19.803 21.5691C19.6641 21.5691 19.5252 21.5493 19.3863 21.5096C18.1163 21.1921 17.144 19.5253 17.144 17.4815C17.144 15.2393 18.3346 13.4138 19.8228 13.4138C21.311 13.4138 22.4619 15.2393 22.4619 17.4815Z" fill="#14B24B"/>
</svg>
