<svg width="25" height="25" viewBox="0 0 25 25" fill="none" xmlns="http://www.w3.org/2000/svg">
<g clip-path="url(#clip0_401_8781)">
<path d="M21.395 13.3379H18.8573C16.869 13.3379 15.2407 14.9592 15.2407 16.9475V20.9274C15.2407 22.1204 16.222 23.0975 17.415 23.0975H22.8373C24.0302 23.0975 25.0003 22.1204 25.0003 20.9274V16.9475C25.0003 14.9592 23.3832 13.3379 21.395 13.3379Z" fill="#FF504A"/>
<path d="M20.1261 13.3379H18.8573C16.869 13.3379 15.2407 14.9592 15.2407 16.9475V20.9274C15.2407 22.1204 16.222 23.0975 17.415 23.0975H20.1261V13.3379Z" fill="#FF7959"/>
<path d="M20.1249 5.94413C18.3366 5.94413 16.8818 7.39896 16.8818 9.18715C16.8818 10.9754 18.3366 12.4302 20.1249 12.4302C21.9131 12.4302 23.3679 10.9754 23.3679 9.18715C23.3679 7.39901 21.9131 5.94413 20.1249 5.94413Z" fill="#FF504A"/>
<path d="M20.1249 5.94413C18.3366 5.94413 16.8818 7.39896 16.8818 9.18715C16.8818 10.9754 18.3366 12.4302 20.1249 12.4302V5.94413V5.94413Z" fill="#FF7959"/>
<path d="M6.15298 13.3379H3.61533C1.6271 13.3379 -0.0012207 14.9592 -0.0012207 16.9474V20.9274C-0.0012207 22.1203 0.980078 23.0975 2.17305 23.0975H7.59531C8.78828 23.0975 9.7584 22.1203 9.7584 20.9274V16.9474C9.7584 14.9592 8.14126 13.3379 6.15298 13.3379Z" fill="#800E51"/>
<path d="M4.88418 13.3379H3.61533C1.6271 13.3379 -0.0012207 14.9592 -0.0012207 16.9475V20.9274C-0.0012207 22.1204 0.980078 23.0975 2.17305 23.0975H4.88418C4.88418 23.0976 4.88418 13.3379 4.88418 13.3379Z" fill="#A7196D"/>
<path d="M14.7073 11.4632H10.2911C8.30283 11.4632 6.6853 13.0807 6.6853 15.069V22.3698C6.6853 22.7681 7.0082 23.0909 7.40645 23.0909H17.5919C17.9902 23.0909 18.313 22.7681 18.313 22.3698V15.069C18.313 13.0807 16.6955 11.4632 14.7073 11.4632Z" fill="#3594C7"/>
<path d="M12.5235 11.4632H10.2911C8.30283 11.4632 6.6853 13.0807 6.6853 15.069V22.3698C6.6853 22.7681 7.0082 23.0909 7.40644 23.0909H12.5235V11.4632Z" fill="#16DCFA"/>
<path d="M12.4959 1.90228C10.1047 1.90228 8.15942 3.8476 8.15942 6.23871C8.15942 8.62982 10.1047 10.5751 12.4959 10.5751C14.887 10.5751 16.8323 8.62982 16.8323 6.23871C16.8323 3.8476 14.887 1.90228 12.4959 1.90228Z" fill="#3594C7"/>
<path d="M12.4959 1.90228C10.1047 1.90228 8.15942 3.8476 8.15942 6.23871C8.15942 8.62982 10.1047 10.5751 12.4959 10.5751V1.90228Z" fill="#16DCFA"/>
<path d="M4.88291 5.94413C3.09468 5.94413 1.63989 7.39896 1.63989 9.18715C1.63989 10.9754 3.09468 12.4302 4.88291 12.4302C6.67114 12.4302 8.12593 10.9754 8.12593 9.18715C8.12593 7.39901 6.67114 5.94413 4.88291 5.94413Z" fill="#800E51"/>
<path d="M4.88291 5.94413C3.09468 5.94413 1.63989 7.39896 1.63989 9.18715C1.63989 10.9754 3.09468 12.4302 4.88291 12.4302V5.94413Z" fill="#A7196D"/>
</g>
<defs>
<clipPath id="clip0_401_8781">
<rect width="25" height="25" fill="white"/>
</clipPath>
</defs>
</svg>
