<svg width="25" height="25" viewBox="0 0 25 25" fill="none" xmlns="http://www.w3.org/2000/svg">
<g clip-path="url(#clip0_401_8795)">
<path d="M14.0618 19.5312C14.0618 18.125 14.9232 16.9177 16.1451 16.4062V16.1458C16.1451 15.5125 16.2982 14.9187 16.5524 14.3802C15.7649 13.851 14.8191 13.5416 13.8013 13.5416H4.94718C2.21906 13.5416 -0.000732422 15.7614 -0.000732422 18.4895V22.1354C-0.000732422 22.5666 0.349268 22.9166 0.780517 22.9166H14.0618V19.5312Z" fill="#607D8B"/>
<path d="M9.36995 1.0417C6.49808 1.0417 4.16162 3.37816 4.16162 6.25004C4.16162 9.12191 6.49808 11.4584 9.36995 11.4584C12.2418 11.4584 14.5783 9.12191 14.5783 6.25004C14.5783 3.37816 12.2418 1.0417 9.36995 1.0417Z" fill="#607D8B"/>
<path d="M9.37427 13.5416H4.94718C2.21906 13.5416 -0.000732422 15.7614 -0.000732422 18.4895V22.1354C-0.000732422 22.5666 0.349268 22.9166 0.780518 22.9166H9.37427V13.5416Z" fill="#546D79"/>
<path d="M9.36996 1.0417C6.49808 1.0417 4.16162 3.37816 4.16162 6.25004C4.16162 9.12191 6.49808 11.4584 9.36996 11.4584V1.0417Z" fill="#546D79"/>
<path d="M23.1756 17.7084H22.9152H21.3527H19.2694H17.7069H17.4465C16.4412 17.7084 15.6235 18.5261 15.6235 19.5313V23.1772C15.6235 24.1824 16.4412 25.0001 17.4465 25.0001H23.1756C24.1808 25.0001 24.9985 24.1824 24.9985 23.1772V19.5313C24.9985 18.5261 24.1808 17.7084 23.1756 17.7084Z" fill="#FFC107"/>
<path d="M20.3075 13.5416C18.8711 13.5416 17.7034 14.7104 17.7034 16.1458V17.7083H19.2659V16.1458C19.2659 15.5718 19.7325 15.1041 20.3075 15.1041C20.8825 15.1041 21.3492 15.5718 21.3492 16.1458V17.7083H22.9117V16.1458C22.9117 14.7104 21.744 13.5416 20.3075 13.5416Z" fill="#607D8B"/>
<path d="M20.311 17.7084H19.2694H17.7069H17.4465C16.4412 17.7084 15.6235 18.5261 15.6235 19.5313V23.1772C15.6235 24.1824 16.4412 25.0001 17.4465 25.0001H20.311V17.7084Z" fill="#DEA806"/>
<path d="M20.3075 13.5416C18.8711 13.5416 17.7034 14.7104 17.7034 16.1458V17.7083H19.2659V16.1458C19.2659 15.5718 19.7325 15.1041 20.3075 15.1041V13.5416Z" fill="#546D79"/>
</g>
<defs>
<clipPath id="clip0_401_8795">
<rect width="25" height="25" fill="white"/>
</clipPath>
</defs>
</svg>
