<svg width="37" height="36" viewBox="0 0 37 36" fill="none" xmlns="http://www.w3.org/2000/svg">
<path d="M0.749023 17.8831C0.749023 14.3795 1.78798 10.9545 3.7345 8.04132C5.68103 5.12814 8.4477 2.85759 11.6847 1.5168C14.9216 0.176011 18.4835 -0.174801 21.9198 0.508728C25.3561 1.19226 28.5126 2.87943 30.9901 5.35688C33.4675 7.83434 35.1547 10.9908 35.8382 14.4272C36.5217 17.8635 36.1709 21.4253 34.8301 24.6623C33.4894 27.8992 31.2188 30.6659 28.3056 32.6124C25.3924 34.559 21.9675 35.5979 18.4638 35.5979C13.7656 35.5979 9.25973 33.7315 5.93756 30.4094C2.6154 27.0872 0.749023 22.5814 0.749023 17.8831H0.749023Z" fill="#FF0000"/>
<path d="M27.5168 13.5062C27.4128 13.0989 27.2037 12.726 26.9103 12.4249C26.6169 12.1239 26.2495 11.9052 25.8449 11.7908C24.3724 11.3856 18.4638 11.3856 18.4638 11.3856C18.4638 11.3856 12.5551 11.3856 11.0826 11.7908C10.6781 11.9052 10.3107 12.1239 10.0173 12.4249C9.72384 12.726 9.5147 13.0989 9.41077 13.5062C9.13835 15.0478 9.00618 16.6109 9.01588 18.1763C9.00618 19.7417 9.13835 21.3048 9.41077 22.8464C9.5147 23.2537 9.72384 23.6266 10.0173 23.9276C10.3107 24.2287 10.6781 24.4474 11.0826 24.5617C12.5588 24.967 18.4638 24.967 18.4638 24.967C18.4638 24.967 24.3724 24.967 25.8449 24.5617C26.2492 24.4471 26.6163 24.2284 26.9094 23.9273C27.2026 23.6263 27.4115 23.2535 27.5153 22.8464C27.7882 21.3048 27.9209 19.7418 27.9117 18.1763C27.9214 16.6109 27.7892 15.0478 27.5168 13.5062Z" fill="white"/>
<path d="M16.6923 21.4245V15.5195L21.4162 18.472L16.6923 21.4245Z" fill="#FF0000"/>
</svg>
